<svg width="22" height="22" viewBox="0 0 22 22" fill="none" xmlns="http://www.w3.org/2000/svg">
<path fill-rule="evenodd" clip-rule="evenodd" d="M21.9066 11.0543C21.9066 17.0993 17.0063 21.9996 10.9613 21.9996C4.91633 21.9996 0.0160217 17.0993 0.0160217 11.0543C0.0160217 5.00937 4.91633 0.109062 10.9613 0.109062C17.0063 0.109062 21.9066 5.00937 21.9066 11.0543Z" fill="#FFC246"/>
<path fill-rule="evenodd" clip-rule="evenodd" d="M15.8606 9.55965C16.0869 8.02235 14.928 7.19138 13.3371 6.6374L13.8514 4.55997L12.5691 4.2345L12.0617 6.27039L11.0605 6.02802L11.5611 3.98521L10.3062 3.66667L9.79188 5.7441L7.25467 5.12087L6.94609 6.47813C6.94609 6.47813 7.87868 6.6928 7.85811 6.70665C8.21245 6.76 8.4664 7.07981 8.44098 7.44067L7.06952 13.1605C7.03323 13.2781 6.95212 13.3763 6.84407 13.4335C6.73602 13.4906 6.6099 13.5021 6.4935 13.4652L5.5129 13.2298L4.88889 14.684L6.52779 15.0995L7.4261 15.3349L6.90494 17.4123L8.15983 17.724L8.67413 15.6465L9.68902 15.9374L9.17472 18.0148L10.4365 18.3333L10.9576 16.2213C13.104 16.6368 14.7154 16.4706 15.3943 14.5109C15.9429 12.932 15.3943 12.0179 14.2423 11.4293C15.1392 11.2489 15.8036 10.4814 15.8606 9.55965ZM12.9874 13.6314C12.5965 15.2103 9.96331 14.3239 9.113 14.1439L9.79873 11.3739C10.6285 11.5609 13.3645 11.9764 12.96 13.6314H12.9874ZM13.3714 9.53888C13.0217 10.9723 10.8273 10.2314 10.121 10.0652L10.7176 7.53069C11.4308 7.71074 13.7143 8.04313 13.344 9.53888H13.3714Z" fill="white"/>
</svg>