<svg width="20" height="20" viewBox="0 0 20 20" fill="none" xmlns="http://www.w3.org/2000/svg">
<path fill-rule="evenodd" clip-rule="evenodd" d="M19.5536 4.4776L10.7581 0.153166C10.3421 -0.0510554 9.65839 -0.0510554 9.24231 0.153166L0.446589 4.4776C0.162951 4.61671 0 4.83982 0 5.08937C0 5.09293 0.00113003 5.09626 0.00113003 5.10004V14.2542C0.00113003 14.7516 0.339688 15.2987 0.788311 15.5269L9.24186 19.8349C9.45815 19.9447 9.7289 20 9.99989 20C10.2711 20 10.5421 19.9447 10.7581 19.8344L19.211 15.5273C19.6599 15.2989 19.9982 14.7518 19.9982 14.2542V5.10804C19.9984 5.1016 20 5.09582 20 5.08937C20.0002 4.83982 19.8373 4.61671 19.5536 4.4776ZM9.63715 19.2262C9.61613 19.218 9.59466 19.2107 9.5759 19.2013L1.1219 14.8933C0.919169 14.7898 0.727289 14.4798 0.727289 14.2545V5.83982L9.24231 10.0256C9.3578 10.082 9.49273 10.1231 9.63715 10.1502V19.2262ZM9.56686 9.38714L0.824698 5.08938L9.56686 0.791609C9.77885 0.687609 10.2214 0.687609 10.4334 0.791609L19.1755 5.08938L10.4334 9.38714C10.2214 9.49114 9.77885 9.49114 9.56686 9.38714ZM19.2725 14.2545C19.2725 14.4798 19.0804 14.7902 18.8774 14.8938L10.4241 19.2007C10.4056 19.2104 10.3839 19.2176 10.3631 19.2253V10.1502C10.5075 10.1234 10.6424 10.082 10.7579 10.0256L19.2725 5.83982V14.2545Z" fill="#1F263E"/>
</svg>
