<svg width="18" height="18" viewBox="0 0 18 18" fill="none" xmlns="http://www.w3.org/2000/svg">
<path fill-rule="evenodd" clip-rule="evenodd" d="M16.2902 7.69349L17.3513 7.08828C17.6506 6.91728 17.8652 6.64067 17.9551 6.30907C18.0448 5.97727 17.9994 5.63146 17.8263 5.33586L16.8501 3.66504C16.6772 3.36924 16.3973 3.15703 16.0614 3.06823C15.7262 2.97963 15.3758 3.02443 15.0765 3.19544L14.0152 3.80064C13.8708 3.88324 13.6115 3.86304 13.4818 3.75884C13.4698 3.74924 13.1895 3.52524 12.7842 3.29404C12.3851 3.06567 12.0453 2.93617 12.0288 2.9299L12.0286 2.92983C11.8725 2.87063 11.725 2.65883 11.725 2.49323V1.28321C11.7248 0.575406 11.1422 0 10.4262 0H8.4737C7.75773 0 7.17517 0.575406 7.17517 1.28301V2.49343C7.17517 2.65843 7.0276 2.87063 6.87154 2.92983C6.85737 2.93523 6.51649 3.06523 6.1159 3.29404C5.71065 3.52524 5.4303 3.74924 5.41876 3.75864C5.28921 3.86284 5.03011 3.88324 4.88518 3.80064L3.82348 3.19504C3.5241 3.02423 3.17452 2.97943 2.8385 3.06803C2.50289 3.15683 2.22274 3.36904 2.04987 3.66464L1.0736 5.33546C0.900731 5.63126 0.855186 5.97707 0.945061 6.30847C1.03494 6.64047 1.2495 6.91708 1.54868 7.08788L2.60997 7.69328C2.7545 7.77569 2.86644 8.00769 2.83972 8.17049C2.83729 8.18489 2.78203 8.52989 2.78203 9.0001C2.78203 9.47031 2.83729 9.81491 2.83972 9.82931C2.86624 9.99191 2.7543 10.2241 2.60997 10.3065L1.54868 10.9117C1.2493 11.0825 1.03494 11.3593 0.945061 11.6913C0.855186 12.0227 0.900731 12.3689 1.0736 12.6645L2.04987 14.3354C2.40816 14.9478 3.20347 15.1582 3.82389 14.805L4.88498 14.1998C5.02951 14.117 5.28881 14.1376 5.41816 14.2416C5.4301 14.2512 5.71065 14.4754 6.1159 14.7068C6.51669 14.936 6.85757 15.0658 6.87174 15.071C7.02781 15.1302 7.17537 15.3422 7.17537 15.5074V16.717C7.17537 17.4242 7.75794 18 8.4739 18H10.4264C11.1424 18 11.725 17.4242 11.725 16.717V15.5074C11.725 15.3424 11.8725 15.1302 12.0286 15.071C12.0428 15.0658 12.3841 14.9358 12.7847 14.7068C13.1901 14.4754 13.4709 14.2512 13.4824 14.2416C13.6119 14.1376 13.8717 14.1174 14.016 14.1998L15.0765 14.8046C15.3758 14.9756 15.726 15.0206 16.0614 14.932C16.3973 14.8432 16.6774 14.6308 16.8501 14.3352L17.8263 12.6643C17.9992 12.3685 18.0448 12.0229 17.9551 11.6915C17.8652 11.3595 17.6504 11.0825 17.3511 10.9119L16.2904 10.3067C16.1458 10.2243 16.0339 9.99251 16.0604 9.82951C16.0631 9.81511 16.1181 9.47031 16.1181 9.0003C16.1181 8.52969 16.0627 8.18509 16.0602 8.17069C16.0337 8.00789 16.1456 7.77589 16.2902 7.69349ZM15.4244 8.2713L15.425 8.27535C15.4305 8.31312 15.4736 8.60962 15.4736 9.00031C15.4736 9.41448 15.4254 9.7226 15.4244 9.72845L15.4244 9.72851C15.356 10.1491 15.5951 10.6453 15.9683 10.8581L17.0292 11.4631C17.1796 11.5491 17.2873 11.6885 17.3328 11.8563C17.3784 12.0235 17.3553 12.1977 17.2687 12.3461L16.2924 14.017C16.2054 14.1658 16.0645 14.272 15.8948 14.3172C15.7256 14.3622 15.5493 14.3394 15.3987 14.2536L14.3384 13.649C13.9656 13.4358 13.4109 13.4794 13.0765 13.7476C13.0741 13.75 12.8211 13.9514 12.4628 14.1558C12.1082 14.3582 11.8009 14.4762 11.7981 14.477C11.396 14.6294 11.0809 15.0822 11.0809 15.5076V16.7172C11.0809 17.0736 10.7876 17.3634 10.4269 17.3634H8.47431C8.11359 17.3634 7.82028 17.0736 7.82028 16.7172V15.5076C7.82028 15.0822 7.50532 14.6292 7.10311 14.4768C7.09987 14.4756 6.79603 14.36 6.43856 14.1558C6.08028 13.9514 5.82725 13.75 5.82502 13.7476C5.49042 13.4794 4.93559 13.4356 4.56333 13.649L3.84676 14.0574C3.79765 14.0858 3.7252 14.127 3.6126 14.1911L3.50245 14.2538C3.1895 14.4322 2.78891 14.3258 2.60876 14.0176L1.63248 12.3467C1.54564 12.1979 1.52277 12.0237 1.56832 11.8565C1.61366 11.6887 1.72155 11.5493 1.87174 11.4633L1.9083 11.4425L1.90846 11.4424C2.08264 11.3434 2.16902 11.2942 2.21546 11.2661L2.93202 10.8581C3.30529 10.6453 3.54394 10.1489 3.47573 9.72891L3.47558 9.72797C3.47267 9.70877 3.42654 9.40503 3.42654 9.00031C3.42654 8.58612 3.4748 8.2776 3.47572 8.27177L3.47573 8.2717C3.54435 7.85109 3.30549 7.35489 2.93202 7.14209L2.21384 6.73228L1.87073 6.53668C1.72054 6.45108 1.61265 6.31148 1.5673 6.14387C1.52176 5.97647 1.54483 5.80247 1.63147 5.65367L2.60775 3.98285C2.69458 3.83445 2.83547 3.72785 3.0053 3.68305C3.17452 3.63805 3.35083 3.66085 3.50103 3.74605L4.56273 4.35166C4.93619 4.56466 5.49022 4.52126 5.82442 4.25285C5.82705 4.25065 6.07967 4.04985 6.43815 3.84505C6.79239 3.64265 7.09946 3.52485 7.1021 3.52405C7.5041 3.37164 7.81927 2.91924 7.81927 2.49343V1.28302C7.81927 0.926617 8.11258 0.636614 8.47329 0.636614H10.4258C10.7866 0.636614 11.0799 0.926617 11.0799 1.28302V2.49303C11.0799 2.91884 11.395 3.37164 11.7968 3.52385C11.8001 3.52505 12.1069 3.64265 12.4614 3.84485C12.8197 4.04945 13.0725 4.25045 13.0749 4.25265C13.4089 4.52106 13.964 4.56466 14.3366 4.35166L15.3979 3.74665C15.5481 3.66065 15.7238 3.63805 15.894 3.68325C16.0637 3.72805 16.2046 3.83445 16.2914 3.98285L17.2677 5.65367C17.3545 5.80247 17.3774 5.97667 17.3318 6.14387C17.2863 6.31148 17.1786 6.45108 17.0282 6.53668L15.9679 7.14209C15.5947 7.35489 15.3558 7.85109 15.4244 8.2713ZM9.44997 5.49866C7.49621 5.49866 5.90619 7.06968 5.90619 9.0005C5.90619 10.9313 7.49621 12.5021 9.44997 12.5021C11.4037 12.5021 12.9938 10.9313 12.9938 9.0005C12.9938 7.06968 11.4037 5.49866 9.44997 5.49866ZM9.44997 11.8653C7.85146 11.8653 6.5509 10.5799 6.5509 9.0005C6.5509 7.42089 7.85146 6.13567 9.44997 6.13567C11.0485 6.13567 12.349 7.42089 12.349 9.0005C12.349 10.5799 11.0485 11.8653 9.44997 11.8653Z" fill="#1F263E"/>
</svg>
