<svg width="18" height="18" viewBox="0 0 18 18" fill="none" xmlns="http://www.w3.org/2000/svg">
<path fill-rule="evenodd" clip-rule="evenodd" d="M0 9C0 4.0376 4.0376 0 9 0C13.9626 0 18 4.0376 18 9C18 13.9624 13.9624 18 9 18C4.0376 18 0 13.9624 0 9ZM0.636797 9C0.636797 13.6114 4.3884 17.3632 9 17.3632C13.6116 17.3632 17.3632 13.6114 17.3632 9C17.3632 4.38821 13.6116 0.636606 9 0.636606C4.3884 0.636606 0.636797 4.38821 0.636797 9ZM9 5.75359C9.36804 5.75359 9.6664 5.45523 9.6664 5.08719C9.6664 4.71915 9.36804 4.42079 9 4.42079C8.63196 4.42079 8.3336 4.71915 8.3336 5.08719C8.3336 5.45523 8.63196 5.75359 9 5.75359ZM8.623 7.53581C8.623 7.32761 8.7918 7.15881 9 7.15881C9.2082 7.15881 9.377 7.32761 9.377 7.53581V13.2276C9.377 13.4358 9.2082 13.6046 9 13.6046C8.7918 13.6046 8.623 13.4358 8.623 13.2276V7.53581Z" fill="#1F263E"/>
</svg>
