<svg width="18" height="18" viewBox="0 0 18 18" fill="none" xmlns="http://www.w3.org/2000/svg">
<path fill-rule="evenodd" clip-rule="evenodd" d="M17.97 9.17232C17.97 14.0467 14.0249 17.9982 9.1584 17.9982C4.29189 17.9982 0.346802 14.0467 0.346802 9.17232C0.346802 4.2979 4.29189 0.346405 9.1584 0.346405C14.0249 0.346405 17.97 4.2979 17.97 9.17232Z" fill="#F4F4F4"/>
<mask id="mask0" mask-type="alpha" maskUnits="userSpaceOnUse" x="0" y="0" width="18" height="18">
<path fill-rule="evenodd" clip-rule="evenodd" d="M17.97 9.17232C17.97 14.0467 14.0249 17.9982 9.1584 17.9982C4.29189 17.9982 0.346802 14.0467 0.346802 9.17232C0.346802 4.2979 4.29189 0.346405 9.1584 0.346405C14.0249 0.346405 17.97 4.2979 17.97 9.17232Z" fill="white"/>
</mask>
<g mask="url(#mask0)">
<path fill-rule="evenodd" clip-rule="evenodd" d="M7.94704 13.924H1.73486C2.04524 14.4106 2.40297 14.8653 2.80283 15.2814H15.5127C15.9125 14.8653 16.2703 14.4106 16.5806 13.924H7.94528H7.94704Z" fill="#FF1612"/>
<path fill-rule="evenodd" clip-rule="evenodd" d="M13.8507 1.70361C10.9823 -0.104327 7.33297 -0.104327 4.4646 1.70361H13.8507Z" fill="#FF1612"/>
<path fill-rule="evenodd" clip-rule="evenodd" d="M14.0517 3.061H2.80283C2.40347 3.47812 2.04578 3.93335 1.73486 4.4202H16.5806C16.2697 3.93335 15.912 3.47812 15.5127 3.061L14.0517 3.061Z" fill="#FF1612"/>
<path fill-rule="evenodd" clip-rule="evenodd" d="M7.94696 5.77762H1.0228C0.840195 6.21749 0.693443 6.67145 0.583984 7.13504H17.7314C17.6219 6.67145 17.4751 6.21749 17.2925 5.77762H7.95224L7.94696 5.77762Z" fill="#FF1612"/>
<path fill-rule="evenodd" clip-rule="evenodd" d="M7.94696 11.2091H0.583984C0.693443 11.6727 0.840195 12.1267 1.0228 12.5665H17.2925C17.4751 12.1267 17.6219 11.6727 17.7314 11.2091H7.94696V11.2091Z" fill="#FF1612"/>
<path fill-rule="evenodd" clip-rule="evenodd" d="M4.46289 16.6388C5.8626 17.525 7.48419 17.9962 9.14009 17.998H9.17533C10.8312 17.9962 12.4528 17.525 13.8525 16.6388H4.46289Z" fill="#FF1612"/>
<path fill-rule="evenodd" clip-rule="evenodd" d="M7.94695 8.49249H0.374266C0.358406 8.71667 0.346069 8.94261 0.346069 9.17209C0.346069 9.40156 0.358406 9.62574 0.374266 9.84992H17.9411C17.9569 9.62574 17.9693 9.3998 17.9693 9.17209C17.9693 8.94438 17.9569 8.71667 17.9411 8.49249H7.94695Z" fill="#FF1612"/>
<path fill-rule="evenodd" clip-rule="evenodd" d="M5.90441 0.969277L5.99253 0.935738C5.98019 0.895139 5.96609 0.856305 5.95375 0.817471C5.93789 0.875722 5.92203 0.918086 5.90441 0.969277Z" fill="#F4F4F4"/>
<path fill-rule="evenodd" clip-rule="evenodd" d="M8.52147 9.84991H9.30218V0.34617H9.15767C8.07298 0.344619 6.99741 0.544521 5.98549 0.935741L6.0084 1.00458C6.01112 1.01366 6.01442 1.02902 6.01833 1.04724C6.02964 1.09991 6.04606 1.17641 6.06832 1.19346C6.09005 1.2101 6.16463 1.2026 6.21809 1.19722C6.23833 1.19519 6.25554 1.19346 6.2657 1.19346H6.46308L6.30271 1.30996C6.29489 1.31549 6.28107 1.32354 6.2647 1.33308C6.21833 1.3601 6.15146 1.39907 6.14234 1.42646C6.13367 1.4525 6.1624 1.51686 6.18393 1.56509C6.19305 1.58553 6.20087 1.60307 6.20402 1.61357L6.21674 1.65165C6.23359 1.70199 6.25021 1.75165 6.2657 1.80245L6.10709 1.68594C6.0996 1.68021 6.08825 1.67005 6.07484 1.65805C6.03461 1.62206 5.9758 1.56944 5.94672 1.56944C5.91791 1.56944 5.86086 1.62112 5.82116 1.65708C5.80745 1.6695 5.79581 1.68005 5.78811 1.68594L5.63303 1.80068L5.69471 1.61181C5.69787 1.60275 5.70417 1.58835 5.7116 1.57135L5.71161 1.57133C5.73316 1.52205 5.76425 1.45094 5.75639 1.4247C5.74857 1.39859 5.68101 1.35898 5.63422 1.33154C5.61774 1.32187 5.60383 1.31371 5.59602 1.30819L5.43565 1.19169H5.63303C5.64319 1.19169 5.6604 1.19329 5.68064 1.19517C5.7341 1.20013 5.80868 1.20706 5.83041 1.19169C5.85156 1.17674 5.86744 1.10637 5.87929 1.05385L5.87929 1.05384L5.8793 1.0538C5.88423 1.03195 5.88846 1.01319 5.89209 1.00282L5.90266 0.967514C4.06518 1.7019 2.5264 3.03187 1.53211 4.745L1.54797 4.79266C1.55159 4.80301 1.55566 4.82154 1.5604 4.84315C1.57185 4.89528 1.58723 4.96532 1.60965 4.98154C1.63263 4.99816 1.70557 4.9907 1.75809 4.98532L1.7581 4.98532C1.77807 4.98328 1.79508 4.98154 1.80527 4.98154H2.00441L1.8458 5.09804C1.83688 5.10488 1.82013 5.11469 1.80069 5.12608L1.80066 5.1261L1.80062 5.12612L1.80061 5.12613C1.7548 5.15297 1.69409 5.18853 1.68543 5.21454C1.67629 5.24202 1.70782 5.31219 1.72977 5.36103C1.73743 5.37807 1.74392 5.39252 1.74711 5.40165C1.76261 5.45245 1.77923 5.50212 1.79608 5.55246L1.80879 5.59053L1.64842 5.47403C1.64077 5.46816 1.62908 5.45768 1.6153 5.44533C1.57518 5.40936 1.51736 5.35752 1.48981 5.35752C1.462 5.35752 1.40234 5.41036 1.36169 5.44636L1.36168 5.44637L1.36164 5.44641C1.34822 5.45829 1.33688 5.46833 1.32944 5.47403L1.17083 5.59053C1.18631 5.53979 1.20291 5.49018 1.21974 5.43989L1.21975 5.43986L1.21976 5.43984L1.21977 5.43981L1.21978 5.43979L1.21979 5.43976L1.21979 5.43974L1.2198 5.43974L1.2198 5.43973L1.2198 5.43971L1.23252 5.40165C1.2356 5.39136 1.24303 5.37415 1.2517 5.35407C1.27277 5.3053 1.30117 5.23955 1.29243 5.21454V5.20395C0.886018 6.00821 0.605469 6.87028 0.46062 7.75994C0.465222 7.78659 0.476774 7.81156 0.494104 7.83231C0.515835 7.84895 0.590416 7.84145 0.643868 7.83608C0.664108 7.83404 0.681319 7.83231 0.691484 7.83231H0.888864L0.888839 7.83233C0.835978 7.87116 0.783116 7.90998 0.728493 7.94705C0.713003 7.95756 0.694396 7.96863 0.675444 7.97992C0.627554 8.00843 0.57746 8.03825 0.569884 8.06355C0.562547 8.08804 0.589149 8.15163 0.609656 8.20065C0.618704 8.22228 0.626566 8.24107 0.629803 8.25242C0.635406 8.27207 0.646949 8.30609 0.659448 8.34293C0.670534 8.3756 0.682372 8.41049 0.691484 8.43953L0.532875 8.32303C0.490361 8.28456 0.445639 8.2486 0.398939 8.21535C0.364698 8.53312 0.347051 8.85247 0.346069 9.17208C0.346069 9.39979 0.358406 9.62573 0.374266 9.84991H8.52147ZM7.86765 1.20052C7.87781 1.20052 7.89569 1.20212 7.91671 1.204C7.97223 1.20896 8.04969 1.21589 8.06503 1.20052C8.07972 1.1858 8.09782 1.11739 8.11164 1.06516L8.11164 1.06515C8.11771 1.04223 8.12295 1.02242 8.12671 1.01165L8.18663 0.824538L8.24655 1.01165C8.25016 1.02199 8.25423 1.04052 8.25898 1.06213L8.25898 1.06213C8.27042 1.11426 8.2858 1.1843 8.30823 1.20052C8.33124 1.21717 8.40524 1.20966 8.45828 1.20429C8.47837 1.20225 8.49544 1.20052 8.50561 1.20052H8.70299L8.54262 1.31702C8.5348 1.32255 8.521 1.33059 8.50463 1.34013L8.50462 1.34013L8.50461 1.34014C8.45824 1.36716 8.39136 1.40613 8.38225 1.43353C8.37358 1.45956 8.4023 1.52391 8.42383 1.57214L8.42383 1.57215L8.42383 1.57216C8.43295 1.59259 8.44078 1.61013 8.44393 1.62063L8.50561 1.80951L8.34524 1.69301C8.33758 1.68714 8.32589 1.67666 8.31211 1.66431C8.272 1.62834 8.21418 1.57651 8.18663 1.57651C8.15882 1.57651 8.09916 1.62934 8.05851 1.66534C8.04507 1.67724 8.0337 1.6873 8.02626 1.69301L7.86765 1.80951L7.92404 1.61181C7.92721 1.60123 7.93497 1.58336 7.944 1.56256L7.94402 1.56252L7.94402 1.56251C7.96512 1.51392 7.99313 1.44941 7.98572 1.4247C7.97791 1.3986 7.91035 1.35898 7.86356 1.33154C7.84707 1.32187 7.83316 1.31372 7.82535 1.3082L7.66498 1.1917L7.86765 1.20052ZM7.91671 3.09833C7.89569 3.09629 7.87782 3.09456 7.86765 3.09456H7.67027L7.83064 3.21106C7.8387 3.21676 7.85325 3.22501 7.87043 3.23474C7.91715 3.26122 7.98328 3.2987 7.99101 3.3258C7.99845 3.35189 7.97011 3.41731 7.94898 3.46609C7.94008 3.48663 7.93246 3.50422 7.92933 3.51468C7.91876 3.54556 7.90863 3.57689 7.89849 3.60822L7.89849 3.60823L7.89849 3.60824L7.89848 3.60826L7.89848 3.60827L7.89847 3.60828L7.89847 3.60829L7.89846 3.60831L7.89846 3.60832L7.89846 3.60833L7.89845 3.60834L7.89845 3.60835L7.89844 3.60837L7.89844 3.60838L7.89843 3.60839L7.89843 3.6084L7.89843 3.60842L7.89842 3.60843L7.89842 3.60844L7.89841 3.60845L7.89841 3.60846L7.8984 3.60848L7.8984 3.60849L7.8984 3.6085L7.89839 3.60851C7.88829 3.63975 7.87819 3.67099 7.86765 3.70178L8.02626 3.58528C8.03482 3.57923 8.04855 3.56714 8.06466 3.55294C8.10497 3.51743 8.16019 3.46878 8.18663 3.46878C8.21288 3.46878 8.2666 3.51672 8.30631 3.55216L8.30632 3.55217C8.3226 3.5667 8.33653 3.57912 8.34524 3.58528L8.50561 3.70178C8.49506 3.67095 8.48494 3.63968 8.47482 3.6084L8.47478 3.60825C8.46464 3.57691 8.4545 3.54557 8.44393 3.51468C8.44081 3.50425 8.43307 3.48658 8.42403 3.46595C8.40248 3.41674 8.37356 3.35068 8.38225 3.3258C8.39127 3.29997 8.45691 3.26185 8.50322 3.23496C8.5202 3.2251 8.53458 3.21675 8.54262 3.21106L8.70299 3.09456H8.50561C8.49545 3.09456 8.47837 3.09616 8.45828 3.09804C8.40524 3.103 8.33124 3.10993 8.30823 3.09456C8.28575 3.07955 8.27035 3.00955 8.25889 2.95749L8.25889 2.95748L8.25889 2.95748L8.25888 2.95747C8.25418 2.93608 8.25014 2.91773 8.24655 2.90745C8.23686 2.87568 8.22672 2.84435 8.21659 2.81302C8.20646 2.78168 8.19632 2.75035 8.18663 2.71858C8.17694 2.75035 8.16681 2.78168 8.15667 2.81301C8.14654 2.84434 8.13641 2.87568 8.12671 2.90745C8.12298 2.91815 8.11778 2.93742 8.11177 2.95974L8.11177 2.95976C8.09794 3.01112 8.07977 3.07857 8.06503 3.09456C8.04969 3.11121 7.97223 3.10371 7.91672 3.09833L7.91671 3.09833ZM7.86765 4.99037C7.87781 4.99037 7.89569 4.9921 7.91671 4.99414C7.97223 4.99951 8.04969 5.00701 8.06503 4.99037C8.0797 4.97444 8.09777 4.90667 8.11158 4.85488L8.11159 4.85486L8.1116 4.8548L8.11162 4.85474L8.11164 4.85467L8.11164 4.85466L8.11165 4.85462L8.11167 4.85454L8.11168 4.85452L8.11169 4.85445C8.11774 4.83179 8.12296 4.81223 8.12671 4.80149L8.18663 4.61438L8.24655 4.80149C8.25016 4.81184 8.25423 4.83037 8.25898 4.85198L8.25898 4.85198C8.27042 4.90411 8.2858 4.97415 8.30823 4.99037C8.33124 5.00701 8.40524 4.99951 8.45828 4.99414C8.47837 4.9921 8.49544 4.99037 8.50561 4.99037H8.70299L8.54262 5.10687C8.53368 5.11372 8.5169 5.12354 8.49743 5.13495L8.49742 5.13496C8.45162 5.16179 8.3909 5.19736 8.38225 5.22337C8.37358 5.24941 8.40231 5.31377 8.42383 5.362C8.43295 5.38244 8.44078 5.39998 8.44393 5.41048L8.50561 5.59936L8.34524 5.48285C8.33758 5.47699 8.32589 5.46651 8.31211 5.45416C8.272 5.41819 8.21418 5.36635 8.18663 5.36635C8.15882 5.36635 8.09917 5.41918 8.05852 5.45518L8.05851 5.45518C8.04507 5.46709 8.0337 5.47715 8.02626 5.48285L7.86765 5.59936L7.92404 5.40166C7.92722 5.39107 7.93498 5.37317 7.94402 5.35236C7.96512 5.30377 7.99313 5.23926 7.98572 5.21455C7.97831 5.1898 7.9172 5.15377 7.871 5.12653C7.8513 5.11492 7.83431 5.1049 7.82535 5.09804L7.66498 4.98154L7.86765 4.99037ZM7.91671 6.88818C7.89569 6.88614 7.87782 6.88441 7.86765 6.88441L7.67027 6.87735L7.83064 7.00091C7.8387 7.00661 7.85325 7.01485 7.87043 7.02459L7.87044 7.02459C7.91715 7.05107 7.98328 7.08855 7.99101 7.11565C7.99827 7.14108 7.97649 7.19144 7.95527 7.2405C7.94556 7.26295 7.93597 7.28513 7.92933 7.30452C7.91876 7.33541 7.90863 7.36674 7.89849 7.39807C7.88836 7.4294 7.87823 7.46074 7.86765 7.49163L8.02626 7.37513C8.03481 7.36908 8.04853 7.357 8.06463 7.34282L8.06465 7.3428L8.06466 7.34279C8.10497 7.30728 8.16019 7.25863 8.18663 7.25863C8.21288 7.25863 8.2666 7.30657 8.30632 7.34201C8.3226 7.35654 8.33653 7.36897 8.34524 7.37513L8.50561 7.49163C8.48446 7.42985 8.4545 7.33983 8.44393 7.30452C8.44081 7.29409 8.43307 7.27642 8.42403 7.25579L8.42403 7.25578L8.42402 7.25577L8.42402 7.25575C8.40247 7.20655 8.37356 7.14052 8.38225 7.11565C8.39127 7.08982 8.45691 7.0517 8.50322 7.02481L8.50324 7.02479C8.52021 7.01494 8.53458 7.00659 8.54262 7.00091L8.70299 6.88441H8.50561C8.49545 6.88441 8.47837 6.88601 8.45828 6.88789C8.40524 6.89285 8.33124 6.89977 8.30823 6.88441C8.28575 6.8694 8.27035 6.7994 8.25889 6.74734L8.25889 6.74733C8.25418 6.72594 8.25014 6.70758 8.24655 6.6973C8.23686 6.66553 8.22672 6.63419 8.21659 6.60286C8.20646 6.57153 8.19632 6.5402 8.18663 6.50843C8.17694 6.5402 8.16681 6.57152 8.15667 6.60285C8.14654 6.63419 8.13641 6.66552 8.12671 6.6973C8.12298 6.70797 8.11781 6.72717 8.11182 6.74941L8.1118 6.74948L8.11177 6.74958L8.11177 6.74961C8.09794 6.80097 8.07977 6.86841 8.06503 6.88441C8.04969 6.90105 7.97223 6.89355 7.91671 6.88818ZM7.86765 8.78022C7.87781 8.78022 7.89569 8.78195 7.91671 8.78398C7.97223 8.78936 8.04969 8.79686 8.06503 8.78022C8.0797 8.76429 8.09777 8.69652 8.11158 8.64472C8.11767 8.62188 8.12293 8.60215 8.12671 8.59134L8.18663 8.40423L8.24655 8.59134C8.25016 8.60169 8.25423 8.62022 8.25898 8.64182C8.27042 8.69395 8.2858 8.76399 8.30823 8.78022C8.33124 8.79686 8.40524 8.78936 8.45828 8.78398C8.47837 8.78195 8.49544 8.78022 8.50561 8.78022H8.70299L8.54262 8.89495C8.53368 8.9018 8.5169 8.91163 8.49743 8.92303L8.49742 8.92304L8.49741 8.92305C8.45161 8.94988 8.3909 8.98545 8.38225 9.01145C8.37358 9.03749 8.40231 9.10185 8.42383 9.15009C8.43295 9.17052 8.44078 9.18806 8.44393 9.19856L8.50561 9.38744L8.34524 9.27094C8.33758 9.26507 8.32589 9.25459 8.31211 9.24224C8.272 9.20627 8.21418 9.15443 8.18663 9.15443C8.15882 9.15443 8.09916 9.20727 8.05851 9.24327L8.05847 9.2433C8.04505 9.25519 8.0337 9.26524 8.02626 9.27094L7.86765 9.38744L7.92404 9.1915C7.92722 9.18091 7.93498 9.16302 7.94402 9.14221C7.96512 9.09362 7.99313 9.02911 7.98572 9.00439C7.97831 8.97964 7.9172 8.94362 7.871 8.91638C7.8513 8.90477 7.83431 8.89475 7.82535 8.88789L7.66498 8.77315L7.86765 8.78022ZM6.79943 2.14336C6.77935 2.14132 6.76227 2.13959 6.7521 2.13959L6.55472 2.13606L6.71333 2.25256C6.72107 2.25773 6.73383 2.26499 6.74889 2.27356L6.74891 2.27358L6.74892 2.27358L6.74893 2.27358L6.74893 2.27359C6.79563 2.30016 6.86438 2.33928 6.8737 2.3673C6.8829 2.39493 6.85098 2.46667 6.82902 2.51604L6.82901 2.51606C6.82151 2.53293 6.81516 2.54718 6.81202 2.55618L6.7521 2.74328L6.91071 2.62678C6.91927 2.62073 6.933 2.60864 6.94911 2.59444C6.98942 2.55893 7.04464 2.51028 7.07108 2.51028C7.09733 2.51028 7.15105 2.55822 7.19077 2.59366C7.20705 2.60819 7.22098 2.62062 7.22969 2.62678L7.39006 2.74328C7.36891 2.6815 7.34777 2.61796 7.32838 2.55618C7.32527 2.54727 7.31913 2.53308 7.31185 2.51627C7.29029 2.46647 7.25879 2.3937 7.2667 2.3673C7.2747 2.34057 7.34432 2.3007 7.39144 2.27371L7.39144 2.2737C7.40656 2.26504 7.41936 2.25771 7.42707 2.25256L7.58568 2.13606H7.3883C7.37814 2.13606 7.36093 2.13779 7.34069 2.13983L7.34068 2.13983C7.28723 2.14521 7.21265 2.15271 7.19092 2.13606C7.16866 2.11901 7.15224 2.04252 7.14093 1.98984C7.13702 1.97163 7.13372 1.95626 7.131 1.94719C7.10985 1.88364 7.09047 1.82186 7.07108 1.75831L7.0094 1.95072C7.00667 1.95982 7.00348 1.97527 6.99969 1.99357L6.99968 1.99363L6.99968 1.99366C6.98878 2.04632 6.97301 2.12257 6.94948 2.13959C6.92647 2.15624 6.85247 2.14874 6.79943 2.14336ZM6.7521 4.0354C6.76227 4.0354 6.77935 4.03713 6.79943 4.03917L6.79943 4.03917C6.85247 4.04454 6.92647 4.05205 6.94948 4.0354C6.97307 4.01834 6.98886 3.94271 6.99976 3.89054L6.99976 3.89051L6.99978 3.89044C7.00353 3.87249 7.0067 3.85733 7.0094 3.84829L7.07108 3.65942C7.09047 3.72296 7.10985 3.78475 7.131 3.84829C7.1337 3.85729 7.13697 3.87249 7.14084 3.89049L7.14085 3.89053L7.14085 3.89054C7.15216 3.94314 7.16861 4.01962 7.19092 4.0354C7.21265 4.05077 7.28723 4.04384 7.34068 4.03888C7.36092 4.037 7.37814 4.0354 7.3883 4.0354H7.58568L7.42707 4.15014C7.41827 4.15651 7.40281 4.1656 7.38484 4.17616L7.38484 4.17616C7.33808 4.20366 7.27434 4.24114 7.2667 4.26664C7.25884 4.29288 7.28993 4.364 7.31148 4.41327C7.31892 4.43028 7.32522 4.44469 7.32838 4.45375C7.34388 4.50455 7.3605 4.55423 7.37735 4.60458L7.39006 4.64262L7.22969 4.52612C7.22203 4.52026 7.21035 4.50978 7.19657 4.49743L7.19657 4.49742C7.15645 4.46146 7.09863 4.40962 7.07108 4.40962C7.04327 4.40962 6.98361 4.46245 6.94296 4.49845C6.92952 4.51036 6.91816 4.52042 6.91071 4.52612L6.7521 4.64262C6.76179 4.61085 6.77193 4.57952 6.78206 4.5482C6.79219 4.51686 6.80233 4.48553 6.81202 4.45375C6.81521 4.44462 6.8217 4.43017 6.82936 4.41313C6.85131 4.36429 6.88285 4.29412 6.8737 4.26664C6.86479 4.23986 6.80163 4.20296 6.75528 4.17588C6.73747 4.16547 6.72214 4.15651 6.71333 4.15014L6.55472 4.0354H6.7521ZM6.79943 5.93468C6.77935 5.9328 6.76227 5.93121 6.7521 5.93121H6.55472L6.71333 6.04771C6.72065 6.05259 6.73247 6.05955 6.74647 6.06778C6.79318 6.09526 6.86421 6.13705 6.8737 6.16421C6.88286 6.1904 6.85127 6.26129 6.82931 6.31055C6.82168 6.32769 6.81521 6.34221 6.81202 6.35132C6.80233 6.3831 6.79219 6.41443 6.78206 6.44577C6.77193 6.4771 6.76179 6.50842 6.7521 6.54019L6.91071 6.42369C6.91816 6.41799 6.92952 6.40793 6.94296 6.39602C6.98361 6.36002 7.04327 6.30719 7.07108 6.30719C7.09863 6.30719 7.15645 6.35903 7.19657 6.39499L7.19657 6.395C7.21035 6.40735 7.22203 6.41783 7.22969 6.42369L7.39006 6.54019L7.37735 6.50215C7.3605 6.4518 7.34388 6.40212 7.32838 6.35132C7.32521 6.34226 7.31891 6.32796 7.31147 6.31109L7.31147 6.31108L7.31146 6.31106L7.31145 6.31104L7.31142 6.31098L7.31142 6.31097C7.28988 6.26212 7.25885 6.19174 7.2667 6.16421C7.27478 6.13589 7.34559 6.09521 7.39272 6.06814L7.39274 6.06813L7.39275 6.06813C7.4073 6.05977 7.41959 6.05271 7.42707 6.04771L7.58568 5.93121H7.3883C7.37814 5.93121 7.36092 5.93294 7.34068 5.93497C7.28723 5.94035 7.21265 5.94785 7.19092 5.93121C7.16866 5.91416 7.15224 5.83766 7.14093 5.78499C7.13702 5.76677 7.13372 5.7514 7.131 5.74233C7.10985 5.67879 7.09047 5.617 7.07108 5.55346L7.0094 5.74233C7.00667 5.75146 7.00346 5.76708 6.99966 5.78559C6.98877 5.83866 6.973 5.9155 6.94948 5.93121C6.92647 5.94657 6.85247 5.93965 6.79943 5.93468ZM6.7521 7.82525C6.76227 7.82525 6.77935 7.82698 6.79943 7.82902C6.85247 7.83439 6.92647 7.84189 6.94948 7.82525C6.97307 7.80818 6.98886 7.73256 6.99976 7.68038L6.99976 7.68035L6.99978 7.68029C7.00353 7.66234 7.0067 7.64717 7.0094 7.63814C7.0185 7.6108 7.02727 7.58347 7.036 7.55627L7.03603 7.55616L7.03604 7.55615L7.03604 7.55614L7.03604 7.55613L7.03604 7.55612L7.03605 7.55611L7.03605 7.5561L7.03605 7.5561L7.03606 7.55609L7.03606 7.55608L7.03606 7.55607L7.03606 7.55606L7.03607 7.55605L7.03607 7.55604L7.03607 7.55604L7.03608 7.55603L7.03608 7.55602C7.04761 7.52008 7.05906 7.48439 7.07108 7.44926L7.08495 7.49366C7.0998 7.5413 7.11489 7.58972 7.131 7.63814C7.1337 7.64715 7.13697 7.66236 7.14084 7.68037L7.14085 7.68038C7.15216 7.73298 7.16861 7.80947 7.19092 7.82525C7.21265 7.84061 7.28723 7.83369 7.34068 7.82873C7.36092 7.82685 7.37814 7.82525 7.3883 7.82525H7.58568L7.42707 7.93999C7.41827 7.94636 7.4028 7.95545 7.38484 7.96601C7.33808 7.99351 7.27434 8.03098 7.2667 8.05649C7.25902 8.08215 7.28857 8.1507 7.31002 8.20047C7.31809 8.21918 7.32501 8.23524 7.32838 8.24536L7.34544 8.29749C7.35897 8.33906 7.37606 8.39157 7.39006 8.43247L7.22969 8.31597C7.22098 8.30981 7.20705 8.29738 7.19077 8.28285C7.15105 8.24741 7.09733 8.19947 7.07108 8.19947C7.04464 8.19947 6.98942 8.24811 6.94912 8.28363C6.933 8.29782 6.91927 8.30992 6.91071 8.31597L6.7521 8.43247L6.81202 8.24536C6.8154 8.23522 6.82247 8.21913 6.8307 8.20038C6.85257 8.15062 6.88266 8.08213 6.8737 8.05649C6.86479 8.03098 6.80161 7.9935 6.75526 7.966L6.75526 7.966C6.73745 7.95544 6.72214 7.94635 6.71333 7.93999L6.55472 7.82525H6.7521ZM1.80061 8.91245L1.80062 8.91244C1.82009 8.90103 1.83687 8.8912 1.8458 8.88436L2.00441 8.76962H1.80703C1.79684 8.76962 1.77982 8.77136 1.75985 8.77341C1.70733 8.77878 1.6344 8.78625 1.61142 8.76962C1.58899 8.7534 1.57361 8.68336 1.56216 8.63123C1.55742 8.60962 1.55335 8.59109 1.54974 8.58074L1.48982 8.39364C1.47924 8.42453 1.46911 8.45586 1.45898 8.48719C1.44884 8.51852 1.43871 8.54985 1.42814 8.58074C1.4254 8.58986 1.4222 8.60534 1.41841 8.62368C1.40752 8.67635 1.39174 8.7526 1.36822 8.76962C1.34521 8.78626 1.2712 8.77876 1.21816 8.77339C1.19808 8.77135 1.181 8.76962 1.17084 8.76962H0.973456L1.13383 8.88436C1.14269 8.89115 1.15912 8.90103 1.17818 8.91249C1.22352 8.93977 1.28375 8.976 1.29244 9.00086C1.30117 9.02587 1.27277 9.09162 1.25171 9.14039C1.24303 9.16047 1.2356 9.17767 1.23252 9.18797L1.2198 9.22603L1.21979 9.22606L1.21978 9.22609L1.21977 9.22612L1.21977 9.22614L1.21976 9.22615C1.20293 9.27646 1.18632 9.32609 1.17084 9.37684L1.32945 9.26034C1.33689 9.25464 1.34824 9.24459 1.36168 9.23269L1.3617 9.23267C1.40235 9.19667 1.46201 9.14384 1.48982 9.14384C1.51736 9.14384 1.57518 9.19568 1.6153 9.23164C1.62908 9.24399 1.64077 9.25447 1.64842 9.26034L1.8088 9.37684L1.79608 9.33878C1.77923 9.28844 1.76261 9.23877 1.74711 9.18797C1.74392 9.17884 1.73743 9.16439 1.72978 9.14736L1.72977 9.14735C1.70782 9.09851 1.67629 9.02834 1.68543 9.00086C1.69409 8.97485 1.7548 8.93928 1.80061 8.91245ZM1.8458 6.99032C1.83777 6.996 1.82338 7.00435 1.8064 7.01421C1.7601 7.04111 1.69446 7.07922 1.68543 7.10505C1.67623 7.13139 1.70821 7.20388 1.73018 7.25367L1.73018 7.25368C1.73766 7.27064 1.74398 7.28496 1.74711 7.29393C1.75293 7.31058 1.76228 7.33941 1.77276 7.37171L1.77276 7.37173C1.78449 7.40789 1.79763 7.4484 1.8088 7.48104L1.64842 7.36454C1.63971 7.35838 1.62579 7.34595 1.60951 7.33142L1.6095 7.33141C1.56979 7.29598 1.51606 7.24803 1.48982 7.24803C1.46338 7.24803 1.40816 7.29668 1.36785 7.33219L1.36784 7.33219C1.35173 7.34639 1.338 7.35849 1.32945 7.36454L1.17084 7.48104C1.19022 7.41926 1.21137 7.35571 1.23252 7.29393C1.23896 7.27511 1.24818 7.25367 1.25754 7.23191C1.27891 7.18222 1.30102 7.13083 1.29244 7.10505C1.28336 7.07778 1.218 7.04 1.17216 7.0135L1.17216 7.01349L1.17213 7.01348C1.15567 7.00397 1.14174 6.99591 1.13383 6.99032L0.973456 6.87735H1.17084C1.181 6.87735 1.19808 6.87908 1.21816 6.88111C1.2712 6.88649 1.34521 6.89399 1.36822 6.87735C1.3918 6.86028 1.4076 6.78466 1.41849 6.73248C1.42225 6.71449 1.42542 6.69929 1.42814 6.69024L1.48982 6.50136C1.49951 6.53313 1.50964 6.56445 1.51977 6.59578L1.51978 6.5958L1.51978 6.59582C1.52991 6.62714 1.54004 6.65847 1.54974 6.69024C1.55333 6.70052 1.55737 6.71888 1.56208 6.74027C1.57353 6.79234 1.58893 6.86233 1.61142 6.87735C1.6344 6.89269 1.70733 6.8858 1.75985 6.88084C1.77982 6.87895 1.79684 6.87735 1.80703 6.87735H2.00441L1.8458 6.99032ZM5.68064 3.09126C5.6604 3.08923 5.64319 3.0875 5.63303 3.0875L5.43565 3.09279L5.59602 3.2093C5.60408 3.21499 5.61863 3.22324 5.63581 3.23298C5.68253 3.25945 5.74866 3.29693 5.75639 3.32403C5.76429 3.35172 5.73286 3.42371 5.71131 3.47309C5.704 3.48983 5.69783 3.50397 5.69471 3.51291C5.68414 3.5438 5.674 3.57513 5.66387 3.60646L5.66387 3.60648L5.66386 3.60649L5.66386 3.6065L5.66385 3.60651L5.66385 3.60652L5.66384 3.60654L5.66384 3.60655L5.66384 3.60656L5.66383 3.60657L5.66383 3.60658L5.66382 3.6066L5.66382 3.60661L5.66381 3.60662L5.66381 3.60663C5.6537 3.63791 5.64358 3.66918 5.63303 3.70002L5.7934 3.57822C5.80209 3.57208 5.81581 3.5597 5.83187 3.54522L5.83187 3.54522C5.87119 3.50977 5.92448 3.46172 5.95201 3.46172C5.97973 3.46172 6.03448 3.51044 6.07438 3.54596C6.09029 3.56012 6.10384 3.57218 6.11238 3.57822L6.27099 3.69472C6.2516 3.63294 6.23046 3.56939 6.20931 3.50761C6.20618 3.49718 6.19845 3.47951 6.18941 3.45888L6.18941 3.45888C6.16786 3.40967 6.13893 3.34361 6.14763 3.31874C6.15665 3.29291 6.22229 3.25479 6.2686 3.2279C6.28558 3.21804 6.29996 3.20968 6.308 3.204L6.46837 3.0875H6.27099C6.26082 3.0875 6.24361 3.0891 6.22337 3.09097C6.16992 3.09594 6.09534 3.10286 6.07361 3.0875C6.05129 3.07172 6.03485 2.99523 6.02354 2.94263L6.02353 2.94263L6.02353 2.94259C6.01965 2.92459 6.01639 2.90939 6.01369 2.90039L5.95201 2.71151C5.94232 2.74328 5.93219 2.77461 5.92205 2.80594L5.92205 2.80595C5.91192 2.83728 5.90178 2.86862 5.89209 2.90039C5.88848 2.91072 5.88426 2.92907 5.87936 2.95042C5.8675 3.00205 5.8516 3.07127 5.83041 3.0875C5.80868 3.10414 5.7341 3.09664 5.68064 3.09126ZM5.63303 4.9833C5.64319 4.9833 5.6604 4.98504 5.68064 4.98707C5.7341 4.99245 5.80868 4.99995 5.83041 4.9833C5.85155 4.96711 5.86742 4.89731 5.87927 4.84522C5.88422 4.82348 5.88846 4.80482 5.89209 4.79443L5.95201 4.60732C5.96258 4.63821 5.97272 4.66954 5.98285 4.70088L5.98287 4.70095C5.993 4.73226 6.00312 4.76356 6.01369 4.79443C6.02124 4.81649 6.02722 4.84395 6.03315 4.87118C6.04383 4.92023 6.05435 4.96855 6.07361 4.9833C6.09534 4.99995 6.16992 4.99245 6.22337 4.98707C6.24361 4.98504 6.26082 4.9833 6.27099 4.9833H6.46837L6.308 5.09981C6.29906 5.10665 6.28228 5.11649 6.2628 5.1279C6.21699 5.15473 6.15628 5.1903 6.14763 5.21631C6.13896 5.24235 6.16769 5.30671 6.18921 5.35494C6.19833 5.37538 6.20616 5.39291 6.20931 5.40342L6.22202 5.44149C6.23887 5.49183 6.25549 5.5415 6.27099 5.59229L6.11238 5.47579C6.10491 5.47007 6.0936 5.45995 6.08023 5.44799L6.08021 5.44797L6.08019 5.44796L6.08015 5.44792L6.08013 5.44791L6.08012 5.4479C6.03989 5.4119 5.98108 5.35929 5.95201 5.35929C5.92319 5.35929 5.86615 5.41096 5.82645 5.44693C5.81274 5.45935 5.80109 5.4699 5.7934 5.47579L5.63303 5.59229L5.69471 5.40342C5.69788 5.39436 5.70417 5.37995 5.71161 5.36294C5.73316 5.31367 5.76425 5.24255 5.75639 5.21631C5.74898 5.19156 5.68786 5.15553 5.64166 5.12829C5.62196 5.11668 5.60498 5.10667 5.59602 5.09981L5.43565 4.9833H5.63303ZM5.68065 6.88111C5.66041 6.87908 5.64319 6.87735 5.63303 6.87735H5.43741L5.59602 6.99385C5.60407 6.99954 5.61861 7.00778 5.63577 7.0175L5.63578 7.01751L5.6358 7.01752L5.63581 7.01753C5.68253 7.044 5.74866 7.08148 5.75639 7.10858C5.76365 7.13402 5.74187 7.18437 5.72065 7.23344C5.71094 7.25589 5.70135 7.27806 5.69471 7.29746C5.68414 7.32835 5.67401 7.35967 5.66387 7.391C5.65374 7.42234 5.6436 7.45367 5.63303 7.48457L5.7934 7.36807C5.80209 7.36192 5.81581 7.34955 5.83187 7.33507C5.87119 7.29962 5.92448 7.25156 5.95201 7.25156C5.97973 7.25156 6.03448 7.30029 6.07439 7.33581C6.09029 7.34997 6.10384 7.36203 6.11238 7.36807L6.27099 7.48457C6.26112 7.4531 6.24805 7.41432 6.2362 7.37916L6.23614 7.37899L6.23614 7.37898C6.22474 7.34518 6.21449 7.31475 6.20931 7.29746C6.20618 7.28703 6.19845 7.26936 6.18941 7.24873C6.16786 7.19952 6.13893 7.13346 6.14763 7.10858C6.15665 7.08275 6.22229 7.04464 6.26859 7.01775L6.26862 7.01773L6.26869 7.01769L6.26874 7.01766L6.26878 7.01764L6.2688 7.01762C6.28569 7.00781 6.29999 6.99951 6.308 6.99385L6.46837 6.87735H6.27099C6.26082 6.87735 6.24361 6.87894 6.22337 6.88082C6.16992 6.88579 6.09534 6.89271 6.07361 6.87735C6.0513 6.86157 6.03485 6.78508 6.02354 6.73248C6.01966 6.71446 6.01639 6.69924 6.01369 6.69024L5.95201 6.50136C5.94232 6.53313 5.93218 6.56446 5.92205 6.59579L5.92202 6.59589C5.9119 6.62719 5.90177 6.65849 5.89209 6.69024C5.88848 6.70057 5.88427 6.71891 5.87936 6.74027C5.8675 6.79189 5.8516 6.86111 5.83041 6.87735C5.80868 6.89399 5.7341 6.88649 5.68065 6.88111ZM5.63303 8.77315C5.64319 8.77315 5.6604 8.77488 5.68064 8.77692C5.7341 8.7823 5.80868 8.7898 5.83041 8.77315C5.85155 8.75696 5.86742 8.68716 5.87927 8.63506C5.88422 8.61333 5.88846 8.59467 5.89209 8.58428L5.95201 8.39717C5.96258 8.42806 5.97272 8.45939 5.98285 8.49072L5.98287 8.4908C5.993 8.52211 6.00312 8.55341 6.01369 8.58428C6.01641 8.59335 6.01971 8.60872 6.02362 8.62693C6.03493 8.67961 6.05135 8.7561 6.07361 8.77315C6.09534 8.7898 6.16992 8.7823 6.22337 8.77692C6.24361 8.77488 6.26082 8.77315 6.27099 8.77315H6.46837L6.308 8.88789C6.29906 8.89473 6.28228 8.90456 6.26281 8.91597L6.2628 8.91598C6.21699 8.94281 6.15628 8.97838 6.14763 9.00439C6.13896 9.03043 6.16769 9.09479 6.18921 9.14303C6.19833 9.16346 6.20616 9.181 6.20931 9.1915L6.22202 9.22956C6.23887 9.27991 6.25549 9.32958 6.27099 9.38037L6.11238 9.26387C6.10489 9.25813 6.09354 9.24798 6.08012 9.23598C6.03989 9.19999 5.98108 9.14737 5.95201 9.14737C5.92319 9.14737 5.86615 9.19905 5.82645 9.23501L5.82643 9.23502L5.82641 9.23504C5.81272 9.24745 5.80109 9.25799 5.7934 9.26387L5.63303 9.38037L5.69471 9.1915C5.69788 9.18244 5.70418 9.16803 5.71161 9.15102C5.73316 9.10175 5.76425 9.03063 5.75639 9.00439C5.74898 8.97964 5.68786 8.94361 5.64166 8.91638C5.62196 8.90476 5.60498 8.89475 5.59602 8.88789C5.56606 8.86494 5.49028 8.81022 5.43565 8.77315H5.63303ZM4.56686 2.14336C4.54662 2.14132 4.52941 2.13959 4.51924 2.13959L4.32186 2.13606L4.48223 2.25256C4.49014 2.25816 4.50407 2.26621 4.52051 2.27571L4.52053 2.27572L4.52056 2.27574L4.52057 2.27574C4.56641 2.30225 4.63177 2.34003 4.64084 2.3673C4.64962 2.39368 4.62091 2.4603 4.59981 2.50924L4.59981 2.50925L4.59981 2.50926L4.5998 2.50927L4.59979 2.5093C4.59125 2.52911 4.58397 2.54601 4.58092 2.55618C4.55978 2.61796 4.53863 2.6815 4.51924 2.74328L4.67785 2.62678C4.68641 2.62073 4.70014 2.60864 4.71625 2.59444C4.75656 2.55893 4.81178 2.51028 4.83822 2.51028C4.86447 2.51028 4.91819 2.55822 4.95791 2.59366L4.95792 2.59367C4.9742 2.6082 4.98812 2.62062 4.99683 2.62678L5.1572 2.74328C5.14664 2.71243 5.13652 2.68114 5.12641 2.64985L5.1264 2.64984L5.1264 2.64983L5.12639 2.64982L5.12639 2.6498L5.12638 2.64979L5.12638 2.64978L5.12638 2.64977L5.12637 2.64976L5.12637 2.64974L5.12636 2.64973C5.11623 2.6184 5.1061 2.58707 5.09552 2.55618C5.09239 2.54721 5.08607 2.53288 5.07859 2.51592C5.05662 2.46613 5.02464 2.39363 5.03384 2.3673C5.04287 2.34147 5.1085 2.30335 5.15481 2.27646L5.15482 2.27646C5.1718 2.2666 5.18617 2.25825 5.19421 2.25256L5.35458 2.13606H5.1572C5.14704 2.13606 5.12996 2.13779 5.10988 2.13983L5.10988 2.13983C5.05684 2.14521 4.98283 2.15271 4.95982 2.13606C4.9374 2.11984 4.92202 2.0498 4.91057 1.99767C4.90583 1.97606 4.90176 1.95753 4.89814 1.94719C4.88845 1.91541 4.87832 1.88408 4.86818 1.85275C4.85805 1.82142 4.84792 1.79009 4.83822 1.75831L4.77654 1.95072C4.77382 1.95979 4.77053 1.97516 4.76661 1.99337C4.75531 2.04605 4.73888 2.12254 4.71662 2.13959C4.69489 2.15624 4.62031 2.14874 4.56686 2.14336ZM4.51924 4.0354C4.52941 4.0354 4.54662 4.03713 4.56686 4.03917L4.56686 4.03917C4.62032 4.04454 4.69489 4.05205 4.71662 4.0354C4.73895 4.0183 4.7554 3.94239 4.76671 3.89021C4.77058 3.87236 4.77385 3.85729 4.77654 3.84829L4.83822 3.65942C4.84792 3.69119 4.85805 3.72252 4.86818 3.75385L4.86819 3.75387C4.87832 3.78519 4.88845 3.81652 4.89814 3.84829C4.90173 3.85857 4.90577 3.87692 4.91048 3.89831L4.91048 3.89832L4.91048 3.89832L4.91048 3.89833C4.92194 3.95039 4.93734 4.02039 4.95982 4.0354C4.98283 4.05077 5.05684 4.04384 5.10988 4.03888C5.12996 4.037 5.14704 4.0354 5.1572 4.0354H5.35458L5.19421 4.15014C5.18523 4.15702 5.16833 4.16707 5.14873 4.17873L5.14872 4.17873C5.10295 4.20595 5.04248 4.24192 5.03384 4.26664C5.02469 4.29283 5.05628 4.36372 5.07823 4.41298C5.08587 4.43012 5.09234 4.44464 5.09552 4.45375L5.1572 4.64262L4.99683 4.52612C4.98917 4.52026 4.97749 4.50978 4.96371 4.49743C4.92359 4.46146 4.86577 4.40962 4.83822 4.40962C4.81041 4.40962 4.75076 4.46245 4.71011 4.49845L4.7101 4.49845L4.7101 4.49846L4.71004 4.49851C4.69662 4.51039 4.68529 4.52043 4.67785 4.52612L4.51924 4.64262C4.53473 4.59185 4.55135 4.5422 4.56819 4.49188L4.5682 4.49184L4.58092 4.45375C4.584 4.44347 4.59141 4.42646 4.60007 4.40659L4.60007 4.40659C4.62114 4.35821 4.64959 4.29292 4.64084 4.26664C4.63214 4.24049 4.57172 4.20469 4.52635 4.17781C4.50739 4.16658 4.49106 4.1569 4.48223 4.15014C4.46669 4.13823 4.43832 4.11824 4.40724 4.09633L4.40721 4.09631C4.37841 4.07601 4.34728 4.05407 4.32186 4.0354H4.51924ZM4.56686 5.93468C4.54662 5.9328 4.52941 5.93121 4.51924 5.93121H4.32186L4.48223 6.04771C4.48987 6.05311 4.50311 6.06102 4.5188 6.07041C4.56471 6.09787 4.63165 6.1379 4.64084 6.16421C4.64958 6.18922 4.62118 6.25497 4.60011 6.30374C4.59144 6.32382 4.58401 6.34102 4.58092 6.35132L4.5682 6.38941L4.56819 6.38945C4.55135 6.43977 4.53473 6.48942 4.51924 6.54019L4.67785 6.42369C4.68529 6.418 4.69662 6.40796 4.71004 6.39608L4.7101 6.39603L4.7101 6.39602C4.75075 6.36002 4.81041 6.30719 4.83822 6.30719C4.86577 6.30719 4.92359 6.35903 4.96371 6.395C4.97749 6.40735 4.98917 6.41783 4.99683 6.42369L5.1572 6.54019L5.09552 6.35132C5.09233 6.34219 5.08584 6.32774 5.07818 6.3107C5.05623 6.26186 5.0247 6.19169 5.03384 6.16421C5.04296 6.13682 5.10983 6.09785 5.1562 6.07083C5.17258 6.06129 5.18639 6.05324 5.19421 6.04771L5.35458 5.93121H5.1572C5.14704 5.93121 5.12996 5.93294 5.10988 5.93497C5.05684 5.94035 4.98283 5.94785 4.95982 5.93121C4.9374 5.91498 4.92202 5.84494 4.91057 5.79281C4.90583 5.77121 4.90176 5.75268 4.89814 5.74233C4.88845 5.71056 4.87832 5.67923 4.86818 5.64789C4.85805 5.61656 4.84792 5.58523 4.83822 5.55346L4.77654 5.74233C4.77382 5.75142 4.77052 5.76693 4.7666 5.78531C4.75529 5.8384 4.73887 5.91547 4.71662 5.93121C4.69489 5.94657 4.62031 5.93965 4.56686 5.93468ZM4.51924 7.82525C4.52941 7.82525 4.54662 7.82698 4.56686 7.82902C4.62031 7.83439 4.69489 7.84189 4.71662 7.82525C4.73895 7.80815 4.7554 7.73224 4.76671 7.68005C4.77058 7.66221 4.77385 7.64714 4.77654 7.63814C4.78565 7.61077 4.79443 7.5834 4.80317 7.55617L4.80319 7.55609C4.81473 7.52013 4.82619 7.48441 4.83822 7.44926C4.84606 7.47422 4.85418 7.49947 4.86235 7.52489L4.86236 7.52491L4.86236 7.52493L4.86237 7.52495L4.86237 7.52496L4.86238 7.52498L4.86238 7.525L4.86242 7.5251C4.87445 7.56253 4.88661 7.60033 4.89814 7.63814C4.90173 7.64842 4.90577 7.66678 4.91048 7.68817L4.91048 7.68818C4.92194 7.74024 4.93734 7.81023 4.95982 7.82525C4.98283 7.84061 5.05684 7.83369 5.10988 7.82873C5.12996 7.82685 5.14704 7.82525 5.1572 7.82525H5.35458L5.19421 7.93999C5.18523 7.94687 5.16832 7.95692 5.14872 7.96858C5.10295 7.9958 5.04248 8.03177 5.03384 8.05649C5.02488 8.08213 5.05497 8.15062 5.07684 8.20038C5.08508 8.21913 5.09215 8.23522 5.09552 8.24536L5.11258 8.29749L5.1126 8.29754C5.12613 8.33911 5.14321 8.39159 5.1572 8.43247L4.99683 8.31597C4.98812 8.30981 4.97419 8.29738 4.95791 8.28285C4.91819 8.24741 4.86447 8.19947 4.83822 8.19947C4.81179 8.19947 4.75657 8.24811 4.71626 8.28362L4.71626 8.28363C4.70014 8.29782 4.68641 8.30992 4.67785 8.31597L4.51924 8.43247C4.53863 8.37069 4.55978 8.30714 4.58092 8.24536C4.58734 8.22661 4.59652 8.2051 4.60585 8.18323L4.60585 8.18322L4.60586 8.1832C4.62726 8.13304 4.64943 8.08107 4.64084 8.05649C4.63216 8.03163 4.57193 7.9954 4.52658 7.96812L4.52658 7.96812C4.50752 7.95666 4.4911 7.94677 4.48223 7.93999C4.46668 7.92807 4.43831 7.90807 4.40722 7.88616L4.40721 7.88616L4.4072 7.88615C4.37841 7.86586 4.34728 7.84392 4.32186 7.82525H4.51924ZM3.45102 3.09126H3.45102C3.43093 3.08923 3.41386 3.0875 3.40369 3.0875L3.21336 3.09279L3.37197 3.2093C3.38002 3.21499 3.39443 3.22323 3.41144 3.23295C3.45775 3.25943 3.52332 3.29692 3.53234 3.32403C3.54153 3.35166 3.50962 3.4234 3.48766 3.47277C3.48015 3.48965 3.4738 3.50391 3.47066 3.51291C3.45127 3.57469 3.43013 3.63823 3.40898 3.70002L3.56935 3.58351C3.57804 3.57737 3.59176 3.56499 3.60782 3.55051C3.64714 3.51506 3.70043 3.46701 3.72796 3.46701C3.75568 3.46701 3.81043 3.51574 3.85033 3.55126C3.86624 3.56542 3.87979 3.57748 3.88833 3.58351L4.04694 3.70002L3.97997 3.50761C3.97686 3.4987 3.97071 3.48451 3.96344 3.4677C3.94188 3.4179 3.91038 3.34513 3.91829 3.31874C3.92629 3.29201 3.99591 3.25213 4.04303 3.22514L4.04304 3.22514C4.05815 3.21648 4.07095 3.20915 4.07866 3.204L4.23727 3.0875H4.03989C4.02972 3.0875 4.01251 3.0891 3.99227 3.09097C3.93882 3.09594 3.86424 3.10286 3.84251 3.0875C3.82019 3.07172 3.80375 2.99523 3.79244 2.94264L3.79244 2.94263L3.79243 2.94263L3.79243 2.94262C3.78856 2.92461 3.78529 2.9094 3.78259 2.90039L3.72091 2.71151C3.71122 2.74329 3.70108 2.77462 3.69095 2.80595L3.69095 2.80596C3.68081 2.83729 3.67068 2.86862 3.66099 2.90039C3.65828 2.90944 3.6551 2.92464 3.65135 2.94263C3.64045 2.99481 3.62466 3.07043 3.60107 3.0875C3.57806 3.10414 3.50406 3.09664 3.45102 3.09126ZM3.4037 4.9833C3.41386 4.9833 3.43094 4.98504 3.45102 4.98707C3.50406 4.99245 3.57807 4.99995 3.60108 4.9833C3.6246 4.96628 3.64037 4.89003 3.65127 4.83737L3.65127 4.83736L3.65127 4.83734C3.65506 4.81902 3.65826 4.80355 3.66099 4.79443L3.72091 4.60732C3.73149 4.63821 3.74162 4.66954 3.75175 4.70088C3.76189 4.73221 3.77202 4.76354 3.78259 4.79443C3.79014 4.81649 3.79612 4.84394 3.80205 4.87118L3.80205 4.87118C3.81273 4.92023 3.82325 4.96855 3.84251 4.9833C3.86424 4.99995 3.93882 4.99245 3.99228 4.98707C4.01252 4.98504 4.02973 4.9833 4.03989 4.9833H4.23727L4.07866 5.09981C4.06985 5.10618 4.05438 5.11514 4.0364 5.12555L4.0364 5.12555L4.03639 5.12556C3.98964 5.15264 3.92593 5.18954 3.91829 5.21631C3.91044 5.24384 3.94147 5.31421 3.96301 5.36307L3.96301 5.36307C3.97048 5.37999 3.9768 5.39434 3.97997 5.40342C3.98967 5.43519 3.9998 5.46652 4.00993 5.49786C4.02007 5.52919 4.0302 5.56052 4.03989 5.59229L3.88128 5.47579C3.87379 5.47005 3.86245 5.4599 3.84903 5.4479L3.84903 5.4479C3.8088 5.4119 3.74999 5.35929 3.72091 5.35929C3.6921 5.35929 3.63505 5.41097 3.59536 5.44693C3.58164 5.45935 3.57 5.4699 3.5623 5.47579L3.40193 5.59229L3.41465 5.55423C3.4315 5.50389 3.44812 5.45422 3.46361 5.40342C3.4668 5.39431 3.47327 5.37979 3.4809 5.36265C3.50286 5.31339 3.53445 5.2425 3.5253 5.21631C3.51666 5.19159 3.45619 5.15563 3.41042 5.1284L3.41041 5.1284C3.39081 5.11674 3.37391 5.10669 3.36492 5.09981L3.20632 4.9833H3.4037ZM3.45102 6.88111C3.43093 6.87908 3.41386 6.87735 3.40369 6.87735H3.21336L3.37197 6.99385C3.38002 6.99954 3.39443 7.00778 3.41144 7.01751C3.45775 7.04398 3.52332 7.08148 3.53234 7.10858C3.54044 7.13293 3.51966 7.18012 3.49894 7.22715C3.48812 7.25172 3.47731 7.27625 3.47066 7.29746C3.45127 7.35924 3.43013 7.42279 3.40898 7.48457L3.56935 7.36807C3.57804 7.36192 3.59176 7.34955 3.60782 7.33507C3.64714 7.29962 3.70043 7.25156 3.72796 7.25156C3.75568 7.25156 3.81043 7.30029 3.85034 7.33581C3.86624 7.34997 3.87979 7.36203 3.88833 7.36807L4.04694 7.48457L3.97997 7.29746C3.97686 7.28855 3.97071 7.27436 3.96344 7.25755C3.94188 7.20775 3.91038 7.13498 3.91829 7.10858C3.92629 7.08186 3.99591 7.04198 4.04303 7.01499L4.04305 7.01498L4.04307 7.01497L4.04307 7.01496L4.0431 7.01495C4.05819 7.0063 4.07097 6.99898 4.07866 6.99385L4.23727 6.87735H4.03989C4.02972 6.87735 4.01251 6.87894 3.99227 6.88082C3.93882 6.88579 3.86424 6.89271 3.84251 6.87735C3.8202 6.86157 3.80375 6.78509 3.79244 6.73249L3.79244 6.73249L3.79244 6.73248C3.78856 6.71446 3.78529 6.69924 3.78259 6.69024L3.72091 6.50136C3.71123 6.53308 3.70112 6.56436 3.691 6.59564L3.69099 6.59568L3.69097 6.59572L3.69096 6.59576L3.69095 6.5958C3.68082 6.62713 3.67068 6.65846 3.66099 6.69024C3.65828 6.69929 3.6551 6.71449 3.65135 6.73248C3.64045 6.78465 3.62466 6.86028 3.60107 6.87735C3.57806 6.89399 3.50406 6.88649 3.45102 6.88111ZM2.96135 7.93645C2.95237 7.94333 2.93547 7.95339 2.91586 7.96505L2.91586 7.96505C2.87009 7.99227 2.80962 8.02824 2.80098 8.05296C2.79248 8.0773 2.81999 8.14024 2.84137 8.18913L2.84137 8.18913C2.851 8.21115 2.85938 8.23032 2.86266 8.24183C2.87324 8.2789 2.9032 8.36716 2.92434 8.42894L2.76574 8.31244C2.75588 8.30586 2.74042 8.29213 2.72262 8.27633C2.68312 8.24124 2.63209 8.19594 2.60536 8.19594C2.57784 8.19594 2.52454 8.24399 2.48523 8.27944L2.48522 8.27945L2.48521 8.27946C2.46916 8.29393 2.45544 8.3063 2.44676 8.31244L2.28638 8.42894C2.29696 8.39805 2.30709 8.36672 2.31723 8.33538C2.32736 8.30405 2.33749 8.27272 2.34807 8.24183C2.35469 8.22247 2.36426 8.20017 2.37395 8.17758C2.39518 8.12808 2.41701 8.0772 2.40975 8.05296C2.40242 8.02848 2.3451 7.99466 2.29889 7.9674L2.29888 7.9674L2.29885 7.96739C2.27843 7.95534 2.26018 7.94457 2.24938 7.93645L2.089 7.82172H2.28462C2.29479 7.82172 2.31266 7.82345 2.33368 7.82548C2.3892 7.83086 2.46666 7.83836 2.482 7.82172C2.49674 7.80572 2.51491 7.73827 2.52874 7.68692C2.53475 7.66459 2.53995 7.6453 2.54368 7.63461C2.55524 7.59674 2.56741 7.55887 2.57947 7.52137L2.57947 7.52136L2.57948 7.52136L2.57948 7.52136L2.57949 7.52131C2.58766 7.4959 2.59578 7.47067 2.6036 7.44573C2.61142 7.47066 2.61953 7.49587 2.62769 7.52126L2.62773 7.52137L2.62774 7.52138C2.63979 7.55888 2.65197 7.59674 2.66352 7.63461C2.66711 7.64489 2.67115 7.66325 2.67586 7.68464C2.68732 7.73671 2.70272 7.8067 2.7252 7.82172C2.74821 7.83708 2.82222 7.83016 2.87525 7.82519C2.89534 7.82331 2.91242 7.82172 2.92258 7.82172H3.11996L2.96135 7.93645ZM2.92334 6.06553L2.92335 6.06553L2.92337 6.06552C2.93973 6.05598 2.95354 6.04794 2.96135 6.04241L3.11996 5.92768H2.92258C2.91242 5.92768 2.89534 5.92941 2.87525 5.93144C2.82222 5.93682 2.74821 5.94432 2.7252 5.92768C2.70278 5.91145 2.6874 5.84141 2.67595 5.78928C2.6712 5.76768 2.66714 5.74915 2.66352 5.7388C2.65384 5.70705 2.64371 5.67575 2.63359 5.64444L2.63357 5.6444L2.63356 5.64436C2.62343 5.61303 2.61329 5.5817 2.6036 5.54993C2.59391 5.5817 2.58378 5.61303 2.57364 5.64436C2.56351 5.67569 2.55338 5.70703 2.54368 5.7388C2.53992 5.74957 2.53468 5.76938 2.52861 5.79231C2.5148 5.84454 2.4967 5.91296 2.482 5.92768C2.46666 5.94304 2.3892 5.93612 2.33368 5.93115C2.31266 5.92927 2.29479 5.92768 2.28462 5.92768H2.089L2.24938 6.04418C2.25718 6.0497 2.27109 6.05785 2.28758 6.06752C2.33437 6.09496 2.40193 6.13457 2.40975 6.16068C2.41715 6.18539 2.38914 6.2499 2.36804 6.29849C2.35901 6.31931 2.35124 6.3372 2.34807 6.34779L2.28638 6.5349C2.30918 6.51815 2.33657 6.49845 2.36275 6.47962C2.39728 6.45478 2.42971 6.43145 2.44676 6.4184C2.45445 6.4125 2.46609 6.40196 2.47981 6.38953C2.5195 6.35357 2.57655 6.30189 2.60536 6.30189C2.63322 6.30189 2.68746 6.35019 2.72756 6.3859C2.74327 6.39988 2.75681 6.41194 2.76574 6.4184L2.92434 6.5349L2.86266 6.34602C2.85952 6.33552 2.85169 6.31798 2.84257 6.29755C2.82104 6.24931 2.79232 6.18495 2.80098 6.15891C2.8101 6.13152 2.87697 6.09255 2.92334 6.06553ZM2.96135 4.14661C2.95237 4.15349 2.93547 4.16354 2.91586 4.1752C2.87009 4.20242 2.80962 4.23839 2.80098 4.26311C2.79232 4.28788 2.82099 4.35264 2.84251 4.40127C2.85165 4.42194 2.85951 4.43969 2.86266 4.45022L2.92434 4.63909L2.76574 4.52259C2.75681 4.51613 2.74327 4.50408 2.72756 4.49009C2.68746 4.45439 2.63322 4.40609 2.60536 4.40609C2.57655 4.40609 2.5195 4.45776 2.47981 4.49372C2.46609 4.50615 2.45445 4.5167 2.44676 4.52259L2.28638 4.63909L2.34807 4.45022C2.35123 4.43966 2.35897 4.42199 2.36797 4.40142L2.36797 4.40141C2.38908 4.35321 2.41716 4.28909 2.40975 4.26311C2.40232 4.23707 2.34098 4.20145 2.29475 4.1746L2.29475 4.1746C2.27516 4.16323 2.25829 4.15343 2.24938 4.14661L2.089 4.03187H2.28462C2.29479 4.03187 2.31266 4.0336 2.33368 4.03564L2.33369 4.03564C2.38921 4.04101 2.46666 4.04851 2.482 4.03187C2.49674 4.01587 2.51491 3.94843 2.52874 3.89707L2.52874 3.89707C2.53475 3.87474 2.53995 3.85546 2.54368 3.84476C2.55338 3.81299 2.56351 3.78166 2.57364 3.75033L2.57364 3.75032C2.58378 3.71899 2.59391 3.68766 2.6036 3.65589C2.61329 3.68766 2.62343 3.71899 2.63356 3.75032L2.63358 3.75037C2.64371 3.78169 2.65383 3.813 2.66352 3.84476C2.66711 3.85504 2.67115 3.87341 2.67586 3.8948C2.68732 3.94686 2.70272 4.01686 2.7252 4.03187C2.74821 4.04723 2.82222 4.04031 2.87525 4.03535C2.89534 4.03347 2.91242 4.03187 2.92258 4.03187H3.11996L2.96135 4.14661ZM3.20632 8.76962L3.36492 8.88436V8.88789C3.37427 8.89505 3.3922 8.9053 3.41282 8.9171C3.45828 8.9431 3.51681 8.97657 3.5253 9.00086C3.53445 9.02705 3.50286 9.09794 3.48091 9.1472C3.47327 9.16434 3.4668 9.17886 3.46361 9.18797C3.44812 9.23877 3.43149 9.28844 3.41464 9.33879C3.41042 9.35142 3.40617 9.3641 3.40193 9.37684L3.5623 9.26034C3.57 9.25445 3.58164 9.2439 3.59536 9.23147C3.63505 9.19551 3.6921 9.14384 3.72091 9.14384C3.74999 9.14384 3.8088 9.19645 3.84903 9.23245C3.86244 9.24445 3.87379 9.2546 3.88128 9.26034L4.03989 9.37684C4.0302 9.34507 4.02007 9.31374 4.00993 9.28241C3.9998 9.25107 3.98967 9.21974 3.97997 9.18797C3.9768 9.17888 3.97048 9.16454 3.96301 9.14762C3.94147 9.09876 3.91044 9.02839 3.91829 9.00086C3.92593 8.97408 3.98965 8.93718 4.0364 8.9101C4.05438 8.89969 4.06985 8.89073 4.07866 8.88436L4.23727 8.76962H4.03989C4.02973 8.76962 4.01252 8.77135 3.99228 8.77339C3.93882 8.77876 3.86424 8.78626 3.84251 8.76962C3.82025 8.75257 3.80383 8.67607 3.79252 8.6234C3.78861 8.60518 3.78531 8.58982 3.78259 8.58074C3.77202 8.54985 3.76189 8.51852 3.75175 8.48719C3.74162 8.45586 3.73149 8.42453 3.72091 8.39364L3.66099 8.58074C3.65826 8.58986 3.65506 8.60534 3.65127 8.62368C3.64037 8.67635 3.6246 8.7526 3.60108 8.76962C3.57807 8.78626 3.50406 8.77876 3.45102 8.77339C3.43094 8.77135 3.41386 8.76962 3.4037 8.76962H3.20632Z" fill="#0437A0"/>
<path fill-rule="evenodd" clip-rule="evenodd" d="M1.2925 5.21453C1.30483 5.24984 1.24315 5.36634 1.23258 5.40164C1.21143 5.46519 1.19028 5.52697 1.1709 5.59052L1.32951 5.47402C1.35947 5.45107 1.45111 5.35751 1.48988 5.35751C1.52865 5.35751 1.61853 5.45107 1.64849 5.47402L1.80886 5.59052C1.78771 5.52697 1.76656 5.46519 1.74718 5.40164C1.73484 5.36634 1.67316 5.24984 1.6855 5.21453C1.69783 5.17923 1.81591 5.12098 1.84587 5.09803L2.00448 4.98153H1.8071C1.77009 4.98153 1.64144 5.00448 1.61148 4.98153C1.58152 4.95858 1.56213 4.82796 1.5498 4.79266L1.53394 4.745C1.44758 4.89504 1.3577 5.04861 1.28721 5.20218C1.28897 5.20747 1.2925 5.211 1.2925 5.21453Z" fill="#F4F4F4"/>
<path fill-rule="evenodd" clip-rule="evenodd" d="M5.89382 1.00457C5.88148 1.03988 5.86386 1.1705 5.83214 1.19345C5.80042 1.21639 5.67177 1.19345 5.63476 1.19345H5.43738L5.59775 1.30995C5.62771 1.33113 5.74578 1.38938 5.75812 1.42645C5.77046 1.46352 5.70878 1.57826 5.69644 1.61356L5.633 1.80067L5.79337 1.68417C5.82333 1.66122 5.91497 1.56767 5.95198 1.56767C5.98898 1.56767 6.08239 1.66122 6.11235 1.68417L6.27095 1.80067C6.25157 1.73712 6.23042 1.67534 6.20927 1.61179C6.1987 1.57649 6.13702 1.45999 6.14759 1.42469C6.15817 1.38938 6.278 1.32937 6.30796 1.30818L6.46833 1.19168H6.27272C6.23571 1.19168 6.09649 1.21286 6.07534 1.19168C6.05419 1.1705 6.02599 1.03811 6.01542 1.00281L5.98546 0.93573L5.89734 0.969268L5.89382 1.00457Z" fill="#F4F4F4"/>
<path fill-rule="evenodd" clip-rule="evenodd" d="M0.532862 8.31598L0.691471 8.43248C0.672085 8.3707 0.650937 8.30715 0.62979 8.24537C0.608642 8.18359 0.557535 8.0918 0.569871 8.0565C0.582207 8.0212 0.69852 7.96294 0.72848 7.94C0.758439 7.91705 0.835981 7.86409 0.888851 7.82526H0.69852C0.661511 7.82526 0.5311 7.84821 0.50114 7.82526C0.482318 7.80729 0.468369 7.78481 0.460607 7.75995C0.435934 7.90293 0.416549 8.05473 0.398926 8.2083C0.445626 8.24155 0.490348 8.27751 0.532862 8.31598Z" fill="#F4F4F4"/>
<path fill-rule="evenodd" clip-rule="evenodd" d="M7.99103 7.1086C8.0016 7.14566 7.93992 7.26217 7.92935 7.29747C7.91878 7.33277 7.88882 7.4228 7.86767 7.48458L8.02628 7.36808C8.05624 7.3469 8.14964 7.25158 8.18665 7.25158C8.22366 7.25158 8.3153 7.3469 8.34526 7.36808L8.50563 7.48458C8.48448 7.4228 8.46509 7.35925 8.44395 7.29747C8.4228 7.23569 8.37169 7.14566 8.38226 7.1086C8.39284 7.07153 8.51268 7.01504 8.54264 6.99386L8.70301 6.87736H8.50563C8.46862 6.87736 8.33821 6.9003 8.30825 6.87736C8.27829 6.85441 8.2589 6.72555 8.24657 6.69025C8.22718 6.6267 8.20603 6.56492 8.18665 6.50137C8.16726 6.56492 8.14611 6.6267 8.12673 6.69025C8.11439 6.72555 8.09501 6.85617 8.06505 6.87736C8.03509 6.89854 7.90468 6.87736 7.86767 6.87736H7.67029L7.83066 6.99386C7.86062 7.01504 7.97869 7.07329 7.99103 7.1086Z" fill="#F4F4F4"/>
<path fill-rule="evenodd" clip-rule="evenodd" d="M4.64088 6.17127C4.65322 6.20657 4.59153 6.32308 4.58096 6.35838C4.55981 6.42193 4.53866 6.48371 4.51928 6.54725L4.67789 6.43075C4.70785 6.40781 4.79949 6.31425 4.83826 6.31425C4.87703 6.31425 4.96691 6.40781 4.99687 6.43075L5.15724 6.54725L5.10437 6.34779C5.09203 6.31249 5.03035 6.19598 5.04269 6.16068C5.05502 6.12538 5.1731 6.06536 5.20306 6.04418L5.36343 5.92768H5.15724C5.12023 5.92768 4.98982 5.94886 4.95986 5.92768C4.9299 5.90649 4.91051 5.7741 4.89818 5.7388C4.87879 5.67525 4.85764 5.61347 4.83826 5.54993L4.77658 5.7388C4.766 5.7741 4.74662 5.90473 4.71666 5.92768C4.6867 5.95062 4.55629 5.92768 4.51928 5.92768H4.3219L4.48227 6.04418C4.51223 6.06713 4.63031 6.12538 4.64088 6.17127Z" fill="#F4F4F4"/>
<path fill-rule="evenodd" clip-rule="evenodd" d="M4.64088 8.0565C4.65322 8.09181 4.59153 8.20831 4.58096 8.24538C4.57039 8.28245 4.53866 8.37071 4.51928 8.43249L4.67789 8.31598C4.70785 8.2948 4.79949 8.19948 4.83826 8.19948C4.87703 8.19948 4.96691 8.2948 4.99687 8.31598L5.15724 8.43249C5.13609 8.37071 5.11671 8.30716 5.09556 8.24538C5.07441 8.1836 5.02154 8.09181 5.03388 8.0565C5.04621 8.0212 5.16429 7.96295 5.19425 7.94L5.35462 7.82526H5.15724C5.12023 7.82526 4.98982 7.84821 4.95986 7.82526C4.9299 7.80232 4.91051 7.67346 4.89818 7.63815C4.87879 7.57461 4.85764 7.51106 4.83826 7.44928C4.81711 7.51106 4.79773 7.57461 4.77658 7.63815C4.766 7.67346 4.74662 7.80408 4.71666 7.82526C4.6867 7.84645 4.55629 7.82526 4.51928 7.82526H4.3219C4.37477 7.8641 4.42764 7.90293 4.48227 7.94C4.5369 7.97707 4.63031 8.0212 4.64088 8.0565Z" fill="#F4F4F4"/>
<path fill-rule="evenodd" clip-rule="evenodd" d="M5.75812 9.00438C5.76869 9.03968 5.70878 9.15618 5.69644 9.19149L5.633 9.38036L5.79337 9.26386C5.82333 9.24091 5.91497 9.14736 5.95198 9.14736C5.98898 9.14736 6.08239 9.24091 6.11235 9.26386L6.27095 9.38036C6.25157 9.31682 6.23042 9.25503 6.20927 9.19149C6.1987 9.15618 6.13702 9.03968 6.14759 9.00438C6.15817 8.96907 6.278 8.91082 6.30796 8.88788L6.46833 8.77314H6.27272C6.23571 8.77314 6.09649 8.79609 6.07534 8.77314C6.05419 8.75019 6.02599 8.61957 6.01542 8.58427C5.99427 8.52248 5.97489 8.45894 5.95374 8.39716L5.89382 8.58427C5.88148 8.61957 5.86386 8.75019 5.83214 8.77314C5.80042 8.79609 5.67177 8.77314 5.63476 8.77314H5.43738C5.49201 8.81021 5.54488 8.84904 5.59775 8.88788C5.65062 8.92671 5.74578 8.96731 5.75812 9.00438Z" fill="#F4F4F4"/>
<path fill-rule="evenodd" clip-rule="evenodd" d="M4.64088 4.26665C4.65322 4.30372 4.59153 4.41845 4.58096 4.45376C4.55981 4.5173 4.53866 4.57908 4.51928 4.64263L4.67789 4.52613C4.70785 4.50318 4.79949 4.40963 4.83826 4.40963C4.87703 4.40963 4.96691 4.50318 4.99687 4.52613L5.15724 4.64263L5.10437 4.45376C5.09203 4.41845 5.03035 4.30372 5.04269 4.26665C5.05502 4.22958 5.1731 4.17309 5.20306 4.15014L5.36343 4.03541H5.15724C5.12023 4.03541 4.98982 4.05835 4.95986 4.03541C4.9299 4.01246 4.91051 3.8836 4.89818 3.8483C4.87879 3.78475 4.85764 3.72297 4.83826 3.65942L4.77658 3.8483C4.766 3.8836 4.74662 4.01423 4.71666 4.03541C4.6867 4.05659 4.55629 4.03541 4.51928 4.03541H4.3219C4.37477 4.07424 4.42764 4.11308 4.48227 4.15014C4.5369 4.18721 4.63031 4.22958 4.64088 4.26665Z" fill="#F4F4F4"/>
<path fill-rule="evenodd" clip-rule="evenodd" d="M4.64088 2.37083C4.65322 2.4079 4.59153 2.5244 4.58096 2.5597C4.55981 2.62148 4.53866 2.68503 4.51928 2.74681L4.67789 2.63031C4.70785 2.60913 4.79949 2.51381 4.83826 2.51381C4.87703 2.51381 4.96691 2.60913 4.99687 2.63031L5.15724 2.74681C5.13609 2.68503 5.11671 2.62148 5.09556 2.5597C5.08322 2.5244 5.02154 2.4079 5.03388 2.37083C5.04621 2.33376 5.16429 2.27727 5.19425 2.25609L5.35462 2.13959H5.15724C5.12023 2.13959 4.98982 2.16254 4.95986 2.13959C4.9299 2.11664 4.91051 1.98602 4.89818 1.95072C4.87879 1.88717 4.85764 1.82539 4.83826 1.76184L4.77658 1.95248C4.766 1.98778 4.74662 2.11841 4.71666 2.14136C4.6867 2.1643 4.55629 2.14136 4.51928 2.14136H4.3219L4.48227 2.25786C4.51223 2.27727 4.63031 2.33553 4.64088 2.37083Z" fill="#F4F4F4"/>
<path fill-rule="evenodd" clip-rule="evenodd" d="M3.51823 5.21455C3.53057 5.24985 3.46888 5.36635 3.45655 5.40166C3.43716 5.4652 3.41601 5.52699 3.39487 5.59053L3.55524 5.47403C3.5852 5.45108 3.67684 5.35753 3.71385 5.35753C3.75086 5.35753 3.84426 5.45108 3.87422 5.47403L4.03283 5.59053C4.01344 5.52699 3.99229 5.4652 3.97291 5.40166C3.96057 5.36635 3.89889 5.24985 3.91123 5.21455C3.92356 5.17924 4.03988 5.12099 4.0716 5.09805L4.23021 4.98154H4.04693C4.00992 4.98154 3.88127 5.00449 3.84955 4.98154C3.81782 4.9586 3.8002 4.82797 3.78963 4.79267C3.77905 4.75737 3.74909 4.66734 3.72795 4.60556L3.66803 4.79267C3.65745 4.82797 3.63807 4.9586 3.60811 4.98154C3.57815 5.00449 3.44774 4.98154 3.41073 4.98154H3.2063L3.36491 5.09805C3.39487 5.12099 3.51823 5.17748 3.51823 5.21455Z" fill="#F4F4F4"/>
<path fill-rule="evenodd" clip-rule="evenodd" d="M3.51823 3.31875C3.53057 3.35582 3.46888 3.47233 3.45655 3.50763C3.43716 3.56941 3.41601 3.63296 3.39487 3.69474L3.55524 3.57824C3.5852 3.55705 3.67684 3.46173 3.71385 3.46173C3.75086 3.46173 3.84426 3.55705 3.87422 3.57824L4.04693 3.70003L3.98701 3.51292C3.97467 3.47762 3.91299 3.36112 3.92533 3.32405C3.93766 3.28698 4.05397 3.2305 4.0857 3.20931L4.2443 3.09281H4.04693C4.00992 3.09281 3.88127 3.11576 3.84955 3.09281C3.81782 3.06986 3.8002 2.94101 3.78963 2.9057L3.72795 2.71683C3.70856 2.78037 3.68741 2.84216 3.66803 2.9057C3.65745 2.94101 3.63807 3.07163 3.60811 3.09281C3.57815 3.11399 3.44774 3.09281 3.41073 3.09281H3.2063L3.36491 3.20931C3.39487 3.2252 3.51823 3.28345 3.51823 3.31875Z" fill="#F4F4F4"/>
<path fill-rule="evenodd" clip-rule="evenodd" d="M3.40192 9.38036L3.56229 9.26386C3.59225 9.24091 3.68389 9.14736 3.7209 9.14736C3.7579 9.14736 3.85131 9.24091 3.88127 9.26386L4.03988 9.38036C4.02049 9.31682 3.99934 9.25503 3.97996 9.19149C3.96762 9.15618 3.90594 9.03968 3.91828 9.00438C3.93061 8.96907 4.04693 8.91082 4.07865 8.88788L4.23726 8.77314H4.04693C4.00992 8.77314 3.88127 8.79609 3.84955 8.77314C3.81782 8.75019 3.8002 8.61957 3.78963 8.58427C3.76848 8.52248 3.74909 8.45894 3.72795 8.39716L3.66803 8.58427C3.65745 8.61957 3.63807 8.75019 3.60811 8.77314C3.57815 8.79609 3.44774 8.77314 3.41073 8.77314H3.2063L3.36491 8.88788C3.39487 8.91082 3.51294 8.96731 3.52528 9.00438C3.53761 9.04145 3.47593 9.15618 3.4636 9.19149C3.44421 9.25503 3.42306 9.31682 3.40192 9.38036Z" fill="#F4F4F4"/>
<path fill-rule="evenodd" clip-rule="evenodd" d="M2.72695 4.03541C2.69523 4.01423 2.6776 3.8836 2.66527 3.8483C2.64588 3.78475 2.62473 3.72297 2.60535 3.65942C2.58596 3.72297 2.56482 3.78475 2.54543 3.8483C2.53309 3.8836 2.51547 4.01423 2.48375 4.03541C2.45203 4.05659 2.32338 4.03541 2.28637 4.03541H2.08899L2.24936 4.15014C2.27932 4.17309 2.3974 4.23134 2.40973 4.26665C2.42207 4.30195 2.35862 4.41845 2.34805 4.45376L2.28461 4.64263L2.44498 4.52613C2.47494 4.50318 2.56482 4.40963 2.60359 4.40963C2.64236 4.40963 2.73224 4.50318 2.76396 4.52613L2.92257 4.64263L2.86089 4.45376C2.85031 4.41845 2.78863 4.30372 2.7992 4.26665C2.80978 4.22958 2.92962 4.17309 2.95957 4.15014L3.11995 4.03541H2.92433C2.88732 4.03541 2.75691 4.05306 2.72695 4.03541Z" fill="#F4F4F4"/>
<path fill-rule="evenodd" clip-rule="evenodd" d="M2.72695 7.82526C2.69523 7.80408 2.6776 7.67346 2.66527 7.63815C2.64588 7.57461 2.62473 7.51106 2.60535 7.44928C2.58596 7.51106 2.56482 7.57461 2.54543 7.63815C2.53309 7.67346 2.51547 7.80408 2.48375 7.82526C2.45203 7.84645 2.32338 7.82526 2.28637 7.82526H2.08899L2.24936 7.94C2.27932 7.96295 2.3974 8.0212 2.40973 8.0565C2.42207 8.09181 2.35862 8.20831 2.34805 8.24538C2.33748 8.28245 2.30752 8.37071 2.28637 8.43249L2.44674 8.31598C2.4767 8.2948 2.56658 8.19948 2.60535 8.19948C2.64412 8.19948 2.734 8.2948 2.76572 8.31598L2.92433 8.43249C2.90318 8.37071 2.8838 8.30716 2.86265 8.24538C2.8415 8.1836 2.79039 8.09181 2.80097 8.0565C2.81154 8.0212 2.93138 7.96295 2.96134 7.94L3.12171 7.82526H2.92433C2.88732 7.82526 2.75691 7.84821 2.72695 7.82526Z" fill="#F4F4F4"/>
<path fill-rule="evenodd" clip-rule="evenodd" d="M3.51823 7.1086C3.53057 7.14566 3.46888 7.26217 3.45655 7.29747C3.44421 7.33277 3.41601 7.4228 3.39487 7.48458L3.55524 7.36808C3.5852 7.3469 3.67684 7.25158 3.71385 7.25158C3.75086 7.25158 3.84426 7.3469 3.87422 7.36808L4.03283 7.48458L3.97291 7.29747C3.96057 7.26217 3.89889 7.14566 3.91123 7.1086C3.92356 7.07153 4.03988 7.01504 4.0716 6.99386L4.23021 6.87736H4.04693C4.00992 6.87736 3.88127 6.9003 3.84955 6.87736C3.81782 6.85441 3.8002 6.72555 3.78963 6.69025L3.72795 6.50137C3.70856 6.56492 3.68741 6.6267 3.66803 6.69025C3.65745 6.72555 3.63807 6.85617 3.60811 6.87736C3.57815 6.89854 3.44774 6.87736 3.41073 6.87736H3.2063L3.36491 6.99386C3.39487 7.01504 3.51823 7.07329 3.51823 7.1086Z" fill="#F4F4F4"/>
<path fill-rule="evenodd" clip-rule="evenodd" d="M2.72695 5.93122C2.69523 5.90827 2.6776 5.77765 2.66527 5.74234C2.64588 5.67879 2.62473 5.61701 2.60535 5.55347C2.58596 5.61701 2.56482 5.67879 2.54543 5.74234C2.53309 5.77765 2.51547 5.90827 2.48375 5.93122C2.45203 5.95416 2.32338 5.93122 2.28637 5.93122H2.08899L2.24936 6.04772C2.27932 6.0689 2.3974 6.12715 2.40973 6.16422C2.42207 6.20129 2.35862 6.31603 2.34805 6.35133L2.28461 6.53844C2.33748 6.4996 2.39035 6.45901 2.44498 6.42194C2.49961 6.38487 2.56482 6.30543 2.60359 6.30543C2.64236 6.30543 2.73224 6.39899 2.76396 6.42194L2.92257 6.53844L2.86265 6.3478C2.85207 6.3125 2.79039 6.19599 2.80097 6.16069C2.81154 6.12539 2.93138 6.06537 2.96134 6.04419L3.12171 5.92769H2.92433C2.88732 5.93122 2.75691 5.9524 2.72695 5.93122Z" fill="#F4F4F4"/>
<path fill-rule="evenodd" clip-rule="evenodd" d="M1.61147 8.77314C1.57975 8.75019 1.56213 8.61957 1.54979 8.58427L1.48987 8.39716C1.46872 8.45894 1.44934 8.52248 1.42819 8.58427C1.41762 8.61957 1.39823 8.75019 1.36827 8.77314C1.33831 8.79609 1.2079 8.77314 1.17089 8.77314H0.973511L1.13388 8.88788C1.16384 8.91082 1.28192 8.96731 1.29249 9.00438C1.30306 9.04145 1.24315 9.15618 1.23257 9.19149C1.21142 9.25503 1.19028 9.31682 1.17089 9.38036L1.3295 9.26386C1.35946 9.24091 1.4511 9.14736 1.48987 9.14736C1.52864 9.14736 1.61852 9.24091 1.64848 9.26386L1.80885 9.38036C1.7877 9.31682 1.76655 9.25503 1.74717 9.19149C1.73483 9.15618 1.67315 9.03968 1.68549 9.00438C1.69782 8.96907 1.8159 8.91082 1.84586 8.88788L2.00447 8.77314H1.80709C1.77008 8.77314 1.64143 8.79609 1.61147 8.77314Z" fill="#F4F4F4"/>
<path fill-rule="evenodd" clip-rule="evenodd" d="M6.86662 2.37083C6.87895 2.4079 6.81727 2.5244 6.80494 2.5597L6.74502 2.74681L6.90363 2.63031C6.93359 2.60913 7.02523 2.51381 7.064 2.51381C7.10277 2.51381 7.19265 2.60913 7.22261 2.63031L7.38298 2.74681C7.36183 2.68503 7.34068 2.62148 7.3213 2.5597C7.30896 2.5244 7.24728 2.4079 7.25961 2.37083C7.27195 2.33376 7.38826 2.27727 7.41999 2.25609L7.57859 2.13959H7.39531C7.3583 2.13959 7.22966 2.16254 7.19793 2.13959C7.16621 2.11664 7.14859 1.98602 7.13801 1.95072C7.11687 1.88717 7.09748 1.82539 7.0781 1.76184L7.00937 1.95248C6.99879 1.98778 6.97941 2.11841 6.94945 2.14136C6.91949 2.1643 6.78908 2.14136 6.75207 2.14136H6.55469L6.7133 2.25786C6.74502 2.27727 6.86662 2.33553 6.86662 2.37083Z" fill="#F4F4F4"/>
<path fill-rule="evenodd" clip-rule="evenodd" d="M7.99103 9.00438C8.0016 9.03968 7.93992 9.15618 7.92935 9.19149L7.86767 9.38036L8.02628 9.26386C8.05624 9.24091 8.14964 9.14736 8.18665 9.14736C8.22366 9.14736 8.3153 9.24091 8.34526 9.26386L8.50563 9.38036L8.45276 9.19149C8.44218 9.15618 8.3805 9.03968 8.39108 9.00438C8.40165 8.96907 8.52149 8.91082 8.55145 8.88788L8.71182 8.77314H8.50563C8.46862 8.77314 8.33821 8.79609 8.30825 8.77314C8.27829 8.75019 8.2589 8.61957 8.24657 8.58427L8.18665 8.39716L8.12673 8.58427C8.11439 8.61957 8.09501 8.75019 8.06505 8.77314C8.03509 8.79609 7.90468 8.77314 7.86767 8.77314H7.67029L7.83066 8.88788C7.86062 8.91082 7.97869 8.96731 7.99103 9.00438Z" fill="#F4F4F4"/>
<path fill-rule="evenodd" clip-rule="evenodd" d="M6.86662 4.26665C6.87895 4.30372 6.81727 4.41845 6.80494 4.45376C6.78555 4.5173 6.7644 4.57908 6.74502 4.64263L6.90363 4.52613C6.93359 4.50318 7.02523 4.40963 7.064 4.40963C7.10277 4.40963 7.19265 4.50318 7.22261 4.52613L7.38298 4.64263C7.36183 4.57908 7.34068 4.5173 7.3213 4.45376C7.30896 4.41845 7.24728 4.30372 7.25961 4.26665C7.27195 4.22958 7.38826 4.17309 7.41999 4.15014L7.57859 4.03541H7.39531C7.3583 4.03541 7.22966 4.05835 7.19793 4.03541C7.16621 4.01246 7.14859 3.8836 7.13801 3.8483C7.11687 3.78475 7.09748 3.72297 7.0781 3.65942L7.01641 3.8483C7.00584 3.8836 6.98646 4.01423 6.9565 4.03541C6.92654 4.05659 6.79613 4.03541 6.75912 4.03541H6.55469L6.7133 4.15014C6.74502 4.17309 6.86662 4.22958 6.86662 4.26665Z" fill="#F4F4F4"/>
<path fill-rule="evenodd" clip-rule="evenodd" d="M7.99103 5.21455C8.0016 5.24985 7.93992 5.36635 7.92935 5.40166L7.86767 5.59053L8.02628 5.47403C8.05624 5.45108 8.14964 5.35753 8.18665 5.35753C8.22366 5.35753 8.3153 5.45108 8.34526 5.47403L8.50563 5.59053L8.45276 5.40166C8.44218 5.36635 8.3805 5.24985 8.39108 5.21455C8.40165 5.17924 8.52149 5.12099 8.55145 5.09805L8.71182 4.98154H8.50563C8.46862 4.98154 8.33821 5.00449 8.30825 4.98154C8.27829 4.9586 8.2589 4.82797 8.24657 4.79267L8.18665 4.60556L8.12673 4.79267C8.11439 4.82797 8.09501 4.9586 8.06505 4.98154C8.03509 5.00449 7.90468 4.98154 7.86767 4.98154H7.67029L7.83066 5.09805C7.86062 5.12099 7.97869 5.17748 7.99103 5.21455Z" fill="#F4F4F4"/>
<path fill-rule="evenodd" clip-rule="evenodd" d="M7.99103 3.31874C8.0016 3.35581 7.93992 3.47231 7.92935 3.50761C7.9082 3.5694 7.88882 3.63294 7.86767 3.69472L8.02628 3.57822C8.05624 3.55704 8.14964 3.46172 8.18665 3.46172C8.22366 3.46172 8.3153 3.55704 8.34526 3.57822L8.50563 3.69472C8.48448 3.63294 8.46509 3.5694 8.44395 3.50761C8.43337 3.47231 8.37169 3.35581 8.38226 3.31874C8.39284 3.28167 8.51268 3.22519 8.54264 3.204L8.70301 3.0875H8.50563C8.46862 3.0875 8.33821 3.11045 8.30825 3.0875C8.27829 3.06455 8.2589 2.9357 8.24657 2.90039C8.22718 2.83685 8.20603 2.77506 8.18665 2.71152C8.16726 2.77506 8.14611 2.83685 8.12673 2.90039C8.11439 2.9357 8.09501 3.06632 8.06505 3.0875C8.03509 3.10868 7.90468 3.0875 7.86767 3.0875H7.67029L7.83066 3.204C7.86062 3.22519 7.97869 3.28344 7.99103 3.31874Z" fill="#F4F4F4"/>
<path fill-rule="evenodd" clip-rule="evenodd" d="M6.86662 6.17127C6.87895 6.20657 6.81727 6.32308 6.80494 6.35838C6.78555 6.42193 6.7644 6.48371 6.74502 6.54725L6.90363 6.43075C6.93359 6.4078 7.02523 6.31425 7.064 6.31425C7.10277 6.31425 7.19265 6.4078 7.22261 6.43075L7.38298 6.54725C7.36183 6.48371 7.34068 6.42193 7.3213 6.35838C7.30896 6.32308 7.24728 6.20657 7.25961 6.17127C7.27195 6.13597 7.38826 6.07595 7.41999 6.05477L7.57859 5.93827H7.39531C7.3583 5.93827 7.22966 5.95945 7.19793 5.93827C7.16621 5.91708 7.14859 5.78469 7.13801 5.74939C7.11687 5.68584 7.09748 5.62406 7.0781 5.56052L7.01641 5.74939C7.00584 5.78469 6.98646 5.91532 6.9565 5.93827C6.92654 5.96121 6.79613 5.93827 6.75912 5.93827H6.55469L6.7133 6.05477C6.74502 6.06712 6.86662 6.12537 6.86662 6.17127Z" fill="#F4F4F4"/>
<path fill-rule="evenodd" clip-rule="evenodd" d="M5.75812 3.31874C5.76869 3.35581 5.70878 3.47231 5.69644 3.50761C5.67529 3.5694 5.65591 3.63294 5.63476 3.69472L5.79513 3.57822C5.82509 3.55704 5.91673 3.46172 5.95374 3.46172C5.99075 3.46172 6.08415 3.55704 6.11411 3.57822L6.27272 3.69472C6.25333 3.63294 6.23218 3.5694 6.21104 3.50761C6.20046 3.47231 6.13878 3.35581 6.14936 3.31874C6.15993 3.28167 6.27977 3.22519 6.30973 3.204L6.4701 3.0875H6.27272C6.23571 3.0875 6.09649 3.11045 6.07534 3.0875C6.05419 3.06455 6.02599 2.9357 6.01542 2.90039L5.95374 2.71152C5.93435 2.77506 5.9132 2.83685 5.89382 2.90039C5.88148 2.9357 5.86386 3.06632 5.83214 3.0875C5.80042 3.10868 5.67177 3.0875 5.63476 3.0875H5.43738L5.59775 3.204C5.633 3.22519 5.74578 3.28344 5.75812 3.31874Z" fill="#F4F4F4"/>
<path fill-rule="evenodd" clip-rule="evenodd" d="M6.86662 8.0565C6.87895 8.09181 6.81727 8.20831 6.80494 8.24538L6.74502 8.43249L6.90363 8.31598C6.93359 8.2948 7.02523 8.19948 7.064 8.19948C7.10277 8.19948 7.19265 8.2948 7.22261 8.31598L7.38298 8.43249C7.36183 8.37071 7.34068 8.30716 7.3213 8.24538C7.30191 8.1836 7.24728 8.09181 7.25961 8.0565C7.27195 8.0212 7.38826 7.96295 7.41999 7.94L7.57859 7.82526H7.39531C7.3583 7.82526 7.22966 7.84821 7.19793 7.82526C7.16621 7.80232 7.14859 7.67346 7.13801 7.63815C7.11687 7.57461 7.09748 7.51106 7.0781 7.44928C7.05695 7.51106 7.03756 7.57461 7.01641 7.63815C7.00584 7.67346 6.98646 7.80408 6.9565 7.82526C6.92654 7.84645 6.79613 7.82526 6.75912 7.82526H6.55469L6.7133 7.94C6.74502 7.96295 6.86662 8.0212 6.86662 8.0565Z" fill="#F4F4F4"/>
<path fill-rule="evenodd" clip-rule="evenodd" d="M5.75812 7.1086C5.76869 7.14566 5.70878 7.26217 5.69644 7.29747C5.6841 7.33277 5.65591 7.4228 5.63476 7.48458L5.79513 7.36808C5.82509 7.3469 5.91673 7.25158 5.95374 7.25158C5.99075 7.25158 6.08415 7.3469 6.11411 7.36808L6.27272 7.48458C6.25333 7.4228 6.23218 7.35925 6.21104 7.29747C6.18989 7.23569 6.13878 7.14566 6.14936 7.1086C6.15993 7.07153 6.27977 7.01504 6.30973 6.99386L6.4701 6.87736H6.27272C6.23571 6.87736 6.09649 6.9003 6.07534 6.87736C6.05419 6.85441 6.02599 6.72555 6.01542 6.69025L5.95374 6.50137C5.93435 6.56492 5.9132 6.6267 5.89382 6.69025C5.88148 6.72555 5.86386 6.85617 5.83214 6.87736C5.80042 6.89854 5.67177 6.87736 5.63476 6.87736H5.43738L5.59775 6.99386C5.633 7.01504 5.74578 7.07329 5.75812 7.1086Z" fill="#F4F4F4"/>
<path fill-rule="evenodd" clip-rule="evenodd" d="M5.75812 5.21455C5.76869 5.24985 5.70878 5.36635 5.69644 5.40166L5.633 5.59053L5.79337 5.47403C5.82333 5.45108 5.91497 5.35753 5.95198 5.35753C5.98898 5.35753 6.08239 5.45108 6.11235 5.47403L6.27095 5.59053C6.25157 5.52699 6.23042 5.4652 6.20927 5.40166C6.1987 5.36635 6.13702 5.24985 6.14759 5.21455C6.15817 5.17924 6.278 5.12099 6.30796 5.09805L6.46833 4.98154H6.27272C6.23571 4.98154 6.09649 5.00449 6.07534 4.98154C6.05419 4.9586 6.02599 4.82797 6.01542 4.79267C6.00484 4.75737 5.97489 4.66734 5.95374 4.60556L5.89382 4.79267C5.88148 4.82797 5.86386 4.9586 5.83214 4.98154C5.80042 5.00449 5.67177 4.98154 5.63476 4.98154H5.43738L5.59775 5.09805C5.633 5.12099 5.74578 5.17748 5.75812 5.21455Z" fill="#F4F4F4"/>
<path fill-rule="evenodd" clip-rule="evenodd" d="M1.61147 6.87736C1.57975 6.85617 1.56213 6.72555 1.54979 6.69025C1.5304 6.6267 1.50926 6.56492 1.48987 6.50137L1.42819 6.69025C1.41762 6.72555 1.39823 6.85617 1.36827 6.87736C1.33831 6.89854 1.2079 6.87736 1.17089 6.87736H0.973511L1.13388 6.99386C1.16384 7.01504 1.28192 7.07329 1.29249 7.1086C1.30306 7.1439 1.24315 7.26217 1.23257 7.29747C1.222 7.33277 1.19028 7.4228 1.17089 7.48458L1.3295 7.36808C1.35946 7.3469 1.4511 7.25158 1.48987 7.25158C1.52864 7.25158 1.61852 7.3469 1.64848 7.36808L1.80885 7.48458C1.7877 7.4228 1.76655 7.35925 1.74717 7.29747C1.72778 7.23569 1.67315 7.14566 1.68549 7.1086C1.69782 7.07153 1.8159 7.01504 1.84586 6.99386L2.00447 6.87736H1.80709C1.77008 6.87736 1.64143 6.9003 1.61147 6.87736Z" fill="#F4F4F4"/>
<path fill-rule="evenodd" clip-rule="evenodd" d="M7.99103 1.42469C8.0016 1.46 7.93992 1.5765 7.92935 1.6118L7.86767 1.80068L8.02628 1.68417C8.05624 1.66123 8.14964 1.56767 8.18665 1.56767C8.22366 1.56767 8.3153 1.66123 8.34526 1.68417L8.50563 1.80068L8.45276 1.6118C8.44218 1.5765 8.3805 1.46 8.39108 1.42469C8.40165 1.38939 8.52149 1.32937 8.55145 1.30819L8.71182 1.19169H8.50563C8.46862 1.19169 8.33821 1.21287 8.30825 1.19169C8.27829 1.17051 8.2589 1.03812 8.24657 1.00281L8.18665 0.815704L8.12673 1.00281C8.11439 1.03812 8.09501 1.16874 8.06505 1.19169C8.03509 1.21464 7.90468 1.19169 7.86767 1.19169H7.67029L7.83066 1.30819C7.86062 1.32937 7.97869 1.38762 7.99103 1.42469Z" fill="#F4F4F4"/>
</g>
</svg>
