<svg width="20" height="20" viewBox="0 0 20 20" fill="none" xmlns="http://www.w3.org/2000/svg">
<path fill-rule="evenodd" clip-rule="evenodd" d="M6.24867 0H2.49733C1.12044 0 0 1.12044 0 2.49733V6.24867C0 7.62556 1.12044 8.74578 2.49733 8.74578H6.24867C7.62556 8.74578 8.746 7.62556 8.746 6.24867V2.49733C8.746 1.12044 7.62556 0 6.24867 0ZM8.03844 6.24867C8.03844 7.23533 7.23556 8.03844 6.24867 8.03844H2.49733C1.51044 8.03844 0.707333 7.23556 0.707333 6.24867V2.49733C0.707333 1.51022 1.51022 0.707111 2.49733 0.707111H6.24867C7.23533 0.707111 8.03844 1.51 8.03844 2.49733V6.24867ZM17.5027 0H13.7513C12.3744 0 11.254 1.12044 11.254 2.49733V6.24867C11.254 7.62556 12.3744 8.74578 13.7513 8.74578H17.5027C18.8796 8.74578 20 7.62556 20 6.24867V2.49733C20 1.12044 18.8796 0 17.5027 0ZM19.2924 6.24867C19.2924 7.23533 18.4898 8.03844 17.5024 8.03844H13.7513C12.7644 8.03844 11.9616 7.23556 11.9616 6.24867V2.49733C11.9616 1.51022 12.7642 0.707111 13.7513 0.707111H17.5027C18.4898 0.707111 19.2927 1.51 19.2927 2.49733V6.24867H19.2924ZM2.49733 11.254H6.24867C7.62556 11.254 8.746 12.3744 8.746 13.7513V17.5027C8.746 18.8796 7.62556 20 6.24867 20H2.49733C1.12044 20 0 18.8796 0 17.5027V13.7513C0 12.3744 1.12044 11.254 2.49733 11.254ZM6.24867 19.2927C7.23556 19.2927 8.03844 18.4896 8.03844 17.5027V13.7513C8.03844 12.764 7.23533 11.9616 6.24867 11.9616H2.49733C1.51022 11.9616 0.707333 12.7642 0.707333 13.7513V17.5027C0.707333 18.4898 1.51044 19.2927 2.49733 19.2927H6.24867ZM17.5027 11.254H13.7513C12.3744 11.254 11.254 12.3744 11.254 13.7513V17.5027C11.254 18.8796 12.3744 20 13.7513 20H17.5027C18.8796 20 20 18.8796 20 17.5027V13.7513C20 12.3744 18.8796 11.254 17.5027 11.254ZM19.2924 17.5027C19.2924 18.4896 18.4898 19.2927 17.5024 19.2927H13.7513C12.7644 19.2927 11.9616 18.4898 11.9616 17.5027V13.7513C11.9616 12.7642 12.7642 11.9616 13.7513 11.9616H17.5027C18.4898 11.9616 19.2927 12.764 19.2927 13.7513V17.5027H19.2924Z" fill="#1F263E"/>
</svg>
