<svg width="22" height="22" viewBox="0 0 22 22" fill="none" xmlns="http://www.w3.org/2000/svg">
<path fill-rule="evenodd" clip-rule="evenodd" d="M21.8905 10.9453C21.8905 16.9902 16.9902 21.8905 10.9453 21.8905C4.90031 21.8905 0 16.9902 0 10.9453C0 4.90031 4.90031 0 10.9453 0C16.9902 0 21.8905 4.90031 21.8905 10.9453Z" fill="#07BEAA"/>
<path fill-rule="evenodd" clip-rule="evenodd" d="M17.4936 6.11607L17.5649 6.15303C17.6005 6.15303 17.6005 6.18867 17.5999 6.22431V6.33123V6.33125C17.5999 6.65233 17.5999 6.97341 17.5642 7.29416C17.5286 7.75781 17.4572 8.22311 17.3859 8.6851C17.2083 9.68335 16.8871 10.6466 16.4945 11.5376C15.3888 14.034 13.4976 16.1378 11.1429 17.5287L11.0003 17.6L10.929 17.5644C7.92248 15.8083 5.7302 12.938 4.82791 9.57643C4.68336 9.03764 4.57614 8.48953 4.507 7.93601C4.43586 7.38015 4.40013 6.82034 4.40002 6.25995C4.40002 6.20811 4.40002 6.18978 4.40815 6.17638C4.4126 6.16905 4.41947 6.1632 4.43011 6.15414L4.43011 6.15414C4.44014 6.1456 4.45351 6.13422 4.47134 6.11607C6.57612 4.94062 8.93083 4.33408 11.3215 4.40569C11.6781 4.40569 12.035 4.44133 12.3916 4.47697C14.1754 4.6555 15.924 5.22507 17.4936 6.11607ZM5.04153 8.04293C5.07807 8.46427 5.14964 8.88184 5.25547 9.29132C5.25547 9.36039 5.28957 9.42945 5.32323 9.49762L5.32646 9.50416C5.96928 10.8948 7.64551 11.5366 9.0728 10.8591C9.81011 10.5143 10.3581 9.86247 10.5711 9.07715C10.6425 8.80961 10.6794 8.53401 10.6807 8.2571C10.6807 8.08019 10.716 7.90361 10.7514 7.72703L10.7523 7.72218C10.9627 6.61876 11.7131 5.69455 12.7501 5.26171L12.9271 5.1901C12.9271 5.1901 12.9628 5.1901 12.9271 5.15446C12.3546 5.04754 11.7838 5.0119 11.1772 4.97626C9.00116 4.94071 6.85611 5.4953 4.97021 6.58104V6.65232C4.97021 7.11597 5.00587 7.58094 5.04153 8.04293ZM13.5326 14.8897C13.4782 14.9441 13.4446 15.0194 13.4158 15.0837C13.4069 15.1037 13.3984 15.1226 13.39 15.1395C13.3633 15.1932 13.3271 15.2415 13.283 15.2821C12.6052 15.8883 11.8557 16.4589 11.0709 16.9225L11.0003 16.9581C10.7695 16.8568 10.5535 16.7248 10.3581 16.5658C8.97333 15.6398 7.79507 14.4377 6.89737 13.0348C6.49617 12.3874 6.15004 11.7076 5.86264 11.0023C5.84209 10.9816 5.83339 10.9728 5.8297 10.9623C5.82698 10.9545 5.82698 10.9458 5.82698 10.9307L5.8983 10.967C6.11435 11.1434 6.35463 11.2879 6.61178 11.396C6.93302 11.5386 7.25394 11.6102 7.61084 11.6458C8.30556 11.7184 9.00536 11.5682 9.60898 11.2168C9.96556 11.0386 10.3225 10.8957 10.679 10.8601C12.035 10.7175 13.3203 11.5376 13.7119 12.8573C13.9258 13.5347 13.8545 14.2479 13.5333 14.8897H13.5326ZM16.9584 7.65089C16.994 7.32981 16.994 6.97341 16.994 6.65232L16.9947 6.58038L16.8877 6.54474C16.7597 6.47113 16.6223 6.3977 16.4851 6.3244C16.3547 6.25474 16.2245 6.1852 16.1029 6.11574L16.0712 6.10146C15.6892 5.92962 15.3072 5.75778 14.9256 5.65375C13.462 5.1901 11.8551 6.01047 11.3928 7.47237C11.2438 7.90878 11.2191 8.37803 11.3215 8.82767C11.4646 9.61016 11.9308 10.2962 12.6059 10.7176L12.7485 10.7888C13.7832 11.4307 14.4254 12.5718 14.3541 13.8199C14.3362 13.8735 14.3273 13.927 14.3184 13.9804C14.3095 14.034 14.3006 14.0875 14.2827 14.141C14.3048 14.141 14.3132 14.1274 14.3248 14.1085C14.332 14.0969 14.3404 14.0833 14.3541 14.0697L14.3609 14.0609C14.6082 13.7428 14.8555 13.4246 15.0675 13.0711C16.1304 11.4454 16.7795 9.58467 16.9584 7.65089Z" fill="white"/>
</svg>
