<svg width="62" height="70" viewBox="0 0 62 70" fill="none" xmlns="http://www.w3.org/2000/svg">
<g opacity="0.498744">
<path fill-rule="evenodd" clip-rule="evenodd" d="M31.4355 3.6757C32.3917 3.67266 33.236 4.30176 33.5108 5.222C33.1013 4.68348 32.4674 4.36498 31.7929 4.3589C31.2296 4.34774 30.6861 4.56769 30.2876 4.96803C29.8892 5.36837 29.6703 5.91454 29.6814 6.4806C29.687 6.68594 29.7103 6.89041 29.7511 7.0917C29.4621 6.72382 29.3103 6.26594 29.322 5.7974C29.3109 5.23134 29.5298 4.68517 29.9282 4.28483C30.3266 3.88449 30.8701 3.66454 31.4335 3.6757H31.4355ZM35.973 9.95591C35.8888 9.90861 35.8042 9.8611 35.7296 9.8245V9.8238C35.0497 9.4283 34.7996 9.4283 34.4415 9.8238C34.1124 10.1434 33.7031 10.3672 33.2572 10.4713C33.0051 10.5434 32.9354 10.5791 32.9354 11.0467V20.6479C32.9354 20.7018 32.9443 20.7648 32.9532 20.8278L32.9532 20.8278C32.962 20.8908 32.9709 20.9538 32.9709 21.0077C33.4363 21.0791 33.9016 21.1533 34.3307 21.2233V11.5871C34.3307 11.1195 34.4018 11.0817 34.6526 11.0117C35.0984 10.9076 35.5077 10.6838 35.8369 10.3642C35.9274 10.2368 36.0513 10.1372 36.1949 10.0765C36.1264 10.0421 36.0499 9.99909 35.973 9.95591ZM59.0952 20.1439C58.8688 19.2261 58.0313 18.5949 57.091 18.6333H57.0896C55.9417 18.6247 54.9928 19.5305 54.9426 20.6829C54.9309 21.1624 55.0823 21.6315 55.3717 22.0129C55.3288 21.812 55.3054 21.6073 55.3021 21.4018C55.2985 20.8413 55.521 20.3033 55.9189 19.9104C56.3167 19.5175 56.8559 19.3032 57.4136 19.3165H57.4491C58.0946 19.326 58.7006 19.6305 59.0952 20.1439ZM28.5703 37.5473C28.541 37.4422 28.529 37.3329 28.5348 37.2239V37.191H35.2984C35.2984 37.1233 35.3063 37.0475 35.3146 36.9674C35.324 36.8778 35.3339 36.7827 35.3339 36.6877H27.8549C27.8842 36.7928 27.8962 36.9021 27.8904 37.0111C27.928 37.5501 27.9615 38.0177 27.9977 38.521C28.1661 40.9192 28.8239 43.2569 29.9301 45.3887C30.1918 45.9868 30.6453 46.4797 31.2182 46.7887C30.9822 46.5262 30.7781 46.2364 30.61 45.9256C29.5157 43.7891 28.8586 41.4539 28.6776 39.0579C28.64 38.5539 28.6058 38.087 28.5703 37.5473ZM26.6379 25.6452C26.62 25.7176 26.5931 25.7897 26.5662 25.8618C26.5394 25.9334 26.5128 26.0049 26.4951 26.0764C23.7626 27.7524 21.835 30.4822 21.1631 33.6273H20.4114C20.6977 30.2113 23.5609 26.3998 26.8204 25.0334C26.7816 25.2434 26.7209 25.4487 26.6393 25.6459L26.6379 25.6452ZM30.5738 26.1842C30.9681 25.1419 31.54 24.6022 32.2917 24.6022L32.2924 24.6008C32.3689 24.6008 32.4456 24.611 32.5168 24.6206C32.5786 24.6288 32.6362 24.6365 32.686 24.6365C32.444 24.2791 32.0427 24.064 31.6125 24.0611C30.8964 24.0247 30.2882 24.5644 29.8946 25.6431C29.2327 27.3825 28.6712 29.1587 28.2129 30.9631C28.0724 31.6623 27.9885 32.3719 27.9622 33.0848C27.9622 33.1926 27.9533 33.2915 27.9444 33.3903C27.9355 33.4892 27.9266 33.5881 27.9266 33.6959H28.6421V33.6259C28.6482 32.9116 28.7321 32.2002 28.8922 31.5042C29.3504 29.6998 29.9118 27.9235 30.5738 26.1842ZM24.9228 36.7213C24.9228 36.8163 24.9327 36.9114 24.942 37.001C24.9504 37.0811 24.9583 37.1569 24.9583 37.2246H21.0572C21.3385 40.2512 22.838 43.031 25.2084 44.9197C22.462 43.0311 20.6922 40.0146 20.3773 36.6856H24.9221L24.9228 36.7213ZM30.2903 50.134V49.8463C29.2556 49.7453 28.2354 49.5281 27.2488 49.1988C28.2307 49.6071 29.2491 49.9203 30.2903 50.134ZM38.9146 33.6651H38.2702C38.1242 30.6829 37.4581 27.7497 36.3022 24.9991C37.2448 25.3428 38.118 25.8545 38.8797 26.5097C38.298 26.0948 37.6589 25.7677 36.9828 25.5388C38.0907 28.1143 38.7441 30.8638 38.9139 33.6644L38.9146 33.6651ZM42.994 36.7213H38.2737C38.2249 39.9204 37.531 43.0764 36.2339 45.9984C36.6261 45.8283 37.0085 45.6362 37.3792 45.423C38.3426 42.794 38.8743 40.0251 38.9536 37.2246H42.994C43.0119 37.0573 43.0119 36.8886 42.994 36.7213ZM43.2441 26.8688C41.743 24.8688 39.7605 23.2851 37.483 22.2663C39.9626 23.0709 42.1779 24.5377 43.892 26.5097L43.2441 26.8688ZM15.3373 16.9396C14.0354 17.6958 12.7326 18.4526 11.4318 19.2094H11.4311C11.0375 19.425 11.0013 19.5328 11.1455 19.8205C11.2283 20.1254 11.2407 20.4453 11.1818 20.7557V21.2954C11.2088 21.462 11.2697 21.6212 11.3608 21.763C12.4378 22.3931 13.5142 23.0159 14.6005 23.6444L14.6028 23.6457L14.6033 23.646L14.6037 23.6462C15.9346 24.4163 17.2805 25.195 18.6608 26.0064L20.1279 26.8695C20.1459 26.8329 20.1733 26.8051 20.2005 26.7775C20.2269 26.7507 20.2532 26.7241 20.2707 26.6896L20.0206 26.5461L19.0934 26.014L19.0933 26.0139C16.9209 24.7675 14.821 23.5628 12.7206 22.3027C12.6489 22.2663 12.5771 22.0507 12.5416 21.8351C12.5235 21.6557 12.5235 21.4748 12.5416 21.2954C12.5646 20.9833 12.5524 20.6696 12.5053 20.3602C12.3981 20.0004 12.4691 19.8926 12.8272 19.677C18.302 16.513 23.7434 13.3483 29.0378 10.22H29.0733C28.8144 10.1177 28.582 9.95785 28.3934 9.7524C28.3734 9.73705 28.3549 9.72249 28.3374 9.70878C28.2298 9.62432 28.1638 9.5725 28.0715 9.5725C27.9181 9.60365 27.7723 9.66477 27.6424 9.7524C23.6125 12.1326 19.4794 14.5334 15.3373 16.9396ZM3.98836 20.6479C3.97923 20.0824 4.19875 19.5374 4.59673 19.1375C4.99471 18.7376 5.53709 18.517 6.09984 18.5262C7.05262 18.5334 7.89156 19.1585 8.1751 20.0725C7.77621 19.5212 7.13544 19.1993 6.45721 19.2094C5.89446 19.2002 5.35208 19.4208 4.9541 19.8207C4.55612 20.2206 4.3366 20.7656 4.34573 21.3311C4.35121 21.5246 4.37453 21.7173 4.41539 21.9065C4.14762 21.541 3.99829 21.1016 3.98766 20.6479H3.98836ZM8.21063 49.9163C7.944 48.9799 7.10428 48.325 6.13537 48.2979L6.13258 48.2972C4.94352 48.3502 3.98608 49.2965 3.91382 50.4903C3.9247 50.9446 4.07453 51.3845 4.34294 51.7503C4.30225 51.5731 4.27892 51.3924 4.27328 51.2106C4.28776 49.9992 5.2513 49.0152 6.45652 48.9811H6.49274C7.17907 49.007 7.81421 49.3527 8.21063 49.9163ZM9.21308 46.4282L9.194 46.4186C8.69949 46.1698 8.20542 45.9212 7.74598 45.6372C7.63869 45.5672 7.53141 45.4573 7.53141 45.3852C7.49589 39.5598 7.49589 33.6252 7.49589 27.9097V25.5724L9.6429 24.3495L10.7519 24.997L8.81948 26.0757V28.413C8.81948 34.1306 8.81948 40.0638 8.85501 45.8885C8.9159 45.9811 8.98797 46.0657 9.06957 46.1405C9.17753 46.2131 9.29467 46.2764 9.41174 46.3397C9.52734 46.4022 9.64288 46.4647 9.74948 46.536L9.57045 46.6438C9.46122 46.5562 9.34079 46.4837 9.21238 46.4282H9.21308ZM11.1455 49.161V51.786L28.1795 61.6399C28.2158 61.6215 28.2525 61.5939 28.2889 61.5665C28.3244 61.5398 28.3597 61.5133 28.3941 61.4957L12.5053 52.3257V49.7007L20.5925 44.6663C20.4766 44.516 20.3682 44.3736 20.2604 44.2318L20.26 44.2313L20.2586 44.2293L20.2581 44.2287C20.1341 44.0657 20.0108 43.9035 19.8771 43.7311L11.1455 49.161ZM31.9009 63.0406C32.8458 63.0122 33.6879 63.6358 33.9406 64.5512C33.546 64.0378 32.94 63.7333 32.2945 63.7238H32.259C31.1042 63.7318 30.1591 64.6497 30.112 65.8091C30.1153 66.0028 30.1386 66.1956 30.1816 66.3845C29.8977 66.0139 29.7465 65.5579 29.7525 65.0902C29.8038 63.9383 30.7528 63.0336 31.9002 63.0427L31.9009 63.0406ZM33.6905 60.4163C34.1798 60.6271 34.6374 60.9054 35.0504 61.243L35.049 61.2444C35.3353 61.4964 35.4419 61.4964 35.802 61.3522C35.6784 61.2815 35.5549 61.2195 35.4314 61.1575L35.4313 61.1574L35.4313 61.1574C35.3042 61.0936 35.1772 61.0298 35.0504 60.9567C34.9234 60.8773 34.792 60.8053 34.6568 60.7411V50.3853C38.7227 49.9038 42.3988 47.7239 44.7837 44.38L43.5673 43.6611C41.1794 47.1012 37.442 49.3518 33.2969 49.8456V60.2007C33.4239 60.2801 33.5553 60.3521 33.6905 60.4163ZM47.834 42.8167L47.834 42.8167C47.2546 42.4719 46.6786 42.1291 46.108 41.79L44.9237 41.1068C46.4297 37.3305 46.3523 33.1027 44.7091 29.3846L53.4762 24.4944L54.6215 25.1419L46.0689 29.9243C47.7126 33.6423 47.79 37.8703 46.2835 41.6465L47.4678 42.3297C48.3959 42.8711 49.3303 43.425 50.2682 43.9811C51.5725 44.7543 52.8838 45.5317 54.1951 46.2854C54.1687 46.2895 54.1443 46.302 54.1255 46.3211C54.0456 46.3564 53.9612 46.38 53.8747 46.3911L53.8733 46.3925C51.8747 45.2212 49.8342 44.007 47.834 42.8167ZM57.2011 48.1908C56.6511 48.1926 56.1239 48.4121 55.734 48.8019H55.7326C55.3448 49.2007 55.1048 49.721 55.0527 50.2761C55.0467 50.7438 55.1979 51.1998 55.4818 51.5704C55.4388 51.3815 55.4155 51.1887 55.4121 50.995C55.4199 50.4259 55.6516 49.883 56.0565 49.4851C56.4465 49.0953 56.9736 48.8758 57.5236 48.874H57.5591C58.2214 48.8887 58.8407 49.2066 59.2408 49.7371C58.9865 48.8331 58.1714 48.2043 57.2366 48.1908H57.2011Z" fill="#6540F7"/>
<path d="M36.266 45.9984C37.5463 43.0709 38.2395 39.9184 38.3057 36.7213H43.0296C43.1731 38.0513 42.5287 39.8496 41.3117 41.6479C40.0819 43.5562 38.3298 45.0669 36.266 45.9984Z" fill="#50E3C2"/>
<path d="M35.336 36.7213C35.1932 39.7418 34.7633 42.8701 33.1534 45.6029C32.7954 46.1783 32.259 46.8972 31.6146 46.8972C31.0775 46.8972 30.4693 46.3575 29.9684 45.423C28.8623 43.2912 28.2045 40.9535 28.036 38.5553C28.0005 38.052 27.9663 37.5844 27.9287 37.0447C27.9346 36.9357 27.9226 36.8264 27.8932 36.7213H35.336Z" fill="#50E3C2"/>
<path d="M35.0852 33.7008H27.8925C27.8925 33.4852 27.928 33.3053 27.928 33.0897C27.9543 32.3768 28.0382 31.6672 28.1788 30.968C28.637 29.1636 29.1985 27.3873 29.8604 25.648C30.254 24.5693 30.8622 24.0296 31.5783 24.066C32.3655 24.066 32.7946 24.7492 33.2962 25.6844C34.5501 28.0217 35.0141 30.5025 35.3004 33.7029L35.0852 33.7008Z" fill="#50E3C2"/>
<path d="M38.2695 33.6651C38.1235 30.6829 37.4574 27.7497 36.3015 24.9991C39.3075 26.0421 42.528 29.6737 42.9578 33.6651H38.2695Z" fill="#50E3C2"/>
<path d="M26.8218 25.0348C26.7521 25.2504 26.679 25.4303 26.6072 25.6459C26.2144 26.7542 25.88 27.8825 25.6055 29.0262C25.3568 30.1663 25.1656 31.3184 25.0328 32.4779C24.9973 32.8734 24.9255 33.2689 24.8538 33.6679H20.4163C20.6991 30.2491 23.5978 26.4348 26.8218 25.0348Z" fill="#50E3C2"/>
<path d="M24.922 36.7213C24.9906 39.8643 25.6587 42.9649 26.89 45.8549C23.7767 44.5949 20.5918 40.8205 20.3772 36.7213H24.922Z" fill="#50E3C2"/>
<path d="M54.6235 20.8999C54.6199 20.3394 54.8424 19.8013 55.2402 19.4085C55.6381 19.0156 56.1773 18.8013 56.7349 18.8146H56.7712C57.9336 18.8431 58.8584 19.8033 58.8487 20.9717C58.839 22.1401 57.8984 23.0847 56.7356 23.0937C56.1657 23.1025 55.619 22.867 55.2323 22.4462C54.8422 22.0266 54.6248 21.4741 54.6242 20.8999H54.6235Z" fill="#BD10E0"/>
<path d="M55.4107 48.9825C55.8007 48.5927 56.3278 48.3732 56.8778 48.3714H56.9134C58.08 48.403 59.0129 49.3561 59.0248 50.5288C59.0262 51.0949 58.798 51.6371 58.3929 52.0305C57.9879 52.424 57.4408 52.6347 56.8778 52.6141C56.3115 52.6063 55.7712 52.3735 55.3752 51.9666C54.9806 51.5647 54.7618 51.0213 54.767 50.4567C54.7493 49.8929 54.9858 49.3512 55.4107 48.9825Z" fill="#BD10E0"/>
<path d="M32.6155 7.4515C32.2195 7.8584 31.6793 8.0912 31.1129 8.099C30.5502 8.10817 30.0078 7.88758 29.6098 7.48768C29.2118 7.08778 28.9923 6.54277 29.0014 5.9773C28.9843 5.40947 29.2012 4.85973 29.601 4.45804C30.0007 4.05634 30.5478 3.83835 31.1129 3.8556C31.6781 3.84925 32.2225 4.0696 32.6255 4.46785C33.0285 4.86609 33.2568 5.40935 33.2599 5.9773C33.2215 6.52886 32.9938 7.04992 32.6155 7.4515Z" fill="#BD10E0"/>
<path d="M31.5421 63.2226C32.312 63.2086 33.0294 63.6133 33.4184 64.281C33.8074 64.9488 33.8074 65.7755 33.4184 66.4432C33.0294 67.111 32.312 67.5157 31.5421 67.5017C30.9757 67.4939 30.4355 67.2611 30.0394 66.8542C29.6516 66.4623 29.4331 65.9326 29.4313 65.38C29.425 64.8121 29.6443 64.265 30.0406 63.8601C30.4369 63.4552 30.9776 63.2257 31.5428 63.2226H31.5421Z" fill="#BD10E0"/>
<path d="M5.81206 48.4799C6.97589 48.5144 7.92204 49.4339 7.99529 50.6016C8.00055 51.1945 7.76848 51.7646 7.35123 52.1839C6.93399 52.6031 6.36658 52.8363 5.77653 52.8311C4.60283 52.8023 3.65815 51.853 3.62952 50.6737C3.6592 49.4749 4.61908 48.5101 5.81206 48.4799V48.4799Z" fill="#BD10E0"/>
<path d="M7.27992 22.2663C6.88389 22.6732 6.34365 22.906 5.77729 22.9138C5.2154 22.9193 4.67454 22.6994 4.27466 22.3027C3.86955 21.9046 3.63785 21.3614 3.63028 20.7921C3.62115 20.2266 3.84067 19.6816 4.23865 19.2817C4.63663 18.8818 5.17901 18.6612 5.74176 18.6704C6.90168 18.6657 7.85403 19.5907 7.88877 20.7557C7.92766 21.3265 7.70313 21.8835 7.27992 22.2663Z" fill="#BD10E0"/>
<path fill-rule="evenodd" clip-rule="evenodd" d="M61.5661 49.56C61.5341 47.6124 60.3317 45.8781 58.5246 45.1731C58.1666 45.0296 58.131 44.9211 58.131 44.4899C58.131 37.73 58.131 31.5448 58.0955 25.5759C58.0955 25.1447 58.1652 25.0005 58.5609 24.8206C60.6561 23.8647 61.8253 21.5894 61.3878 19.3193C60.9742 17.0827 59.1328 15.3941 56.8785 15.1844C55.524 15.0553 54.1735 15.4689 53.1209 16.3352L49.8286 14.4291C45.2838 11.8041 40.5962 9.10909 36.0158 6.48199C35.7295 6.33849 35.694 6.22999 35.7658 5.90659C35.9952 4.20707 35.3526 2.50639 34.0585 1.38817C32.7643 0.269943 30.9946 -0.1137 29.3568 0.368889C26.7444 1.12419 25.4201 3.46149 25.8137 6.48199L22.5932 8.35169L22.5875 8.35501C18.1517 10.944 13.5351 13.6385 9.03052 16.2988C8.88771 16.3688 8.88771 16.3688 8.67245 16.2288C8.63693 16.1931 8.60279 16.1588 8.56517 16.1588C7.05794 14.8964 4.94775 14.6562 3.19765 15.5477C1.3594 16.3597 0.227725 18.2454 0.370724 20.258C0.369022 22.2313 1.55775 24.0088 3.37668 24.7527C3.73475 24.9326 3.8058 25.0047 3.8058 25.4359C3.8058 31.9459 3.8058 38.381 3.84133 44.5298C3.91162 44.8939 3.69466 45.252 3.34045 45.3565C1.52165 46.1006 0.332988 47.8779 0.3345 49.8512C0.202376 51.7556 1.21766 53.5545 2.91203 54.418C4.80757 55.5876 7.25033 55.3213 8.85219 53.7705C9.02351 53.8803 9.20309 53.9765 9.38929 54.0582C10.8209 54.8856 12.2517 55.7123 13.7195 56.539C14.7222 57.1162 15.7356 57.7013 16.7551 58.2901L16.7566 58.291L16.7567 58.2911L16.7571 58.2912C19.4848 59.8664 22.2574 61.4675 24.9917 63.0112C25.071 63.0464 25.1436 63.0952 25.2063 63.1554C26.029 63.623 26.3905 63.8386 26.1007 64.6296C26.0463 64.7807 26.0463 64.9461 26.1007 65.0972V65.1672C26.3836 67.7312 28.5436 69.669 31.1109 69.6619C31.3024 69.6679 31.4942 69.656 31.6835 69.6262C33.0048 69.5043 34.2211 68.8515 35.0566 67.8157C35.8921 66.7799 36.2759 65.449 36.121 64.1249C36.0232 63.7391 36.2434 63.3439 36.6219 63.2261C41.453 60.4212 46.7133 57.365 52.6897 53.8412C53.0833 53.6256 53.1905 53.6256 53.4769 53.8412C55.013 55.0745 57.1457 55.2316 58.8444 54.2367C60.6553 53.425 61.7501 51.5439 61.5661 49.56ZM54.9185 18.7267C54.5209 19.1193 54.2984 19.6569 54.3017 20.217C54.2688 20.7976 54.4914 21.3634 54.9105 21.7644C55.2972 22.1852 55.8439 22.4207 56.4138 22.4119C57.5766 22.4029 58.5173 21.4583 58.527 20.2899C58.5367 19.1215 57.6118 18.1613 56.4494 18.1328H56.4132C55.8555 18.1195 55.3163 18.3338 54.9185 18.7267ZM56.5204 47.6889C55.9704 47.6907 55.4433 47.9102 55.0533 48.3V48.2993C54.6483 48.6868 54.4161 49.2221 54.4093 49.784C54.4025 50.3459 54.6216 50.8868 55.0171 51.2841C55.4133 51.6911 55.9538 51.9239 56.5204 51.9316C57.0835 51.9523 57.6306 51.7417 58.0358 51.3482C58.4409 50.9548 58.669 50.4124 58.6674 49.8463C58.6555 48.6736 57.7226 47.7205 56.556 47.6889H56.5204ZM44.0313 28.8827L52.7983 23.9925L55.1244 25.3225V44.9225C55.0724 44.9564 55.0205 44.9827 54.9686 45.0091C54.9132 45.0371 54.8579 45.0652 54.8025 45.1024L53.4093 45.8577C53.3417 45.8919 53.2694 45.9155 53.1947 45.9277C51.2101 44.7651 49.1841 43.5593 47.1973 42.3769L47.1951 42.3756L47.1741 42.3631C46.5884 42.0145 46.0062 41.668 45.4294 41.3252L44.2451 40.642C45.7527 36.8529 45.6753 32.613 44.0306 28.882L44.0313 28.8827ZM37.6258 36.218C37.5595 39.415 36.8664 42.5676 35.586 45.4951C37.6498 44.5635 39.402 43.0528 40.6317 41.1446C41.8487 39.3463 42.4931 37.548 42.3496 36.218H37.6258ZM34.656 36.218C34.5125 39.2385 34.0834 42.3668 32.4728 45.0996C32.1147 45.675 31.5783 46.3939 30.9339 46.3939C30.3968 46.3939 29.7887 45.8542 29.2878 44.9197C28.1816 42.7879 27.5238 40.4502 27.3554 38.052C27.3414 37.8545 27.3277 37.6625 27.3139 37.4696L27.3134 37.4633L27.3128 37.4539L27.3114 37.4351L27.3113 37.4337L27.3113 37.4334L27.3111 37.431C27.2906 37.1448 27.2699 36.8555 27.2481 36.5421C27.2539 36.4331 27.2419 36.3238 27.2125 36.2187L34.656 36.218ZM27.2125 33.1975H34.4052L34.6198 33.1996C34.3335 29.9992 33.8695 27.5184 32.6156 25.1811C32.1147 24.2459 31.6849 23.5627 30.8977 23.5627C30.1816 23.5263 29.5734 24.066 29.1798 25.1447C28.5179 26.884 27.9564 28.6603 27.4982 30.4647C27.3578 31.164 27.2741 31.8735 27.2481 32.5864C27.2481 32.6942 27.2392 32.7931 27.2303 32.8919L27.2303 32.892C27.2214 32.9909 27.2125 33.0897 27.2125 33.1975ZM37.5902 33.1618C37.4442 30.1796 36.7781 27.2464 35.6223 24.4958C38.6282 25.5388 41.8487 29.1704 42.2785 33.1618H37.5902ZM26.0277 24.8496C26.0653 24.7465 26.1027 24.6438 26.139 24.5315H26.1383C22.8823 25.9336 20.0192 29.7451 19.7335 33.1646H24.1711L24.1747 33.1441L24.1747 33.1441L24.1748 33.144L24.1748 33.144L24.1748 33.144L24.1748 33.1439L24.1748 33.1439L24.1748 33.1438L24.1748 33.1438L24.1748 33.1437L24.1748 33.1437C24.2453 32.7518 24.3152 32.3632 24.3501 31.9746C24.4829 30.8151 24.674 29.663 24.9227 28.5229C25.1973 27.3792 25.5317 26.2509 25.9245 25.1426C25.9585 25.0393 25.9932 24.9443 26.0277 24.8496ZM24.2066 36.218C24.2752 39.361 24.9432 42.4616 26.1746 45.3516C23.0613 44.0916 19.8763 40.3172 19.6618 36.218H24.2066ZM51.3696 21.4032C51.3976 21.3206 51.4208 21.2365 51.4392 21.1512H51.4385C51.4559 20.8752 51.4566 20.5911 51.4573 20.3026V20.3025V20.3025V20.3024V20.3024V20.3023V20.3022V20.3022V20.3021C51.4581 19.9892 51.4589 19.6711 51.481 19.3529V18.8496C51.302 18.7418 51.123 18.634 50.9084 18.5262C50.2293 18.1392 49.5595 17.7521 48.8896 17.3649L48.8894 17.3647L48.8891 17.3645L48.8888 17.3644L48.8885 17.3642L48.8883 17.3641L48.888 17.3639L48.8877 17.3637L48.8874 17.3636L48.8872 17.3634C48.2515 16.996 47.6157 16.6285 46.9717 16.261C45.5109 15.4126 44.0298 14.5592 42.5399 13.7006C40.0517 12.2668 37.5388 10.8188 35.0552 9.35689C34.3753 8.96139 34.1607 8.96139 33.7671 9.39259C33.438 9.71225 33.0287 9.93606 32.5829 10.0401C32.3307 10.1122 32.261 10.1479 32.261 10.6155V20.216C32.261 20.2699 32.2699 20.3329 32.2788 20.3959C32.2877 20.4589 32.2965 20.5219 32.2965 20.5758C36.3789 20.9373 40.1144 23.0299 42.5669 26.3291L43.855 25.6102C45.3327 24.7924 46.835 23.948 48.3408 23.1016L48.3414 23.1013C49.3513 22.5337 50.3629 21.9652 51.3696 21.4032ZM32.2945 6.76759C31.8983 7.17466 31.3577 7.40748 30.7911 7.41509C30.2284 7.42426 29.686 7.20368 29.288 6.80377C28.89 6.40387 28.6705 5.85886 28.6796 5.29339C28.6623 4.72551 28.8792 4.17564 29.279 3.7739C29.6788 3.37216 30.226 3.15423 30.7911 3.17169C31.3563 3.16534 31.9007 3.3857 32.3037 3.78394C32.7067 4.18218 32.935 4.72544 32.9381 5.29339C32.8996 5.84491 32.6718 6.36591 32.2938 6.76759H32.2945ZM29.2885 18.2742C29.2885 15.8291 29.2885 13.5275 29.324 11.1902L29.3233 11.1909C29.3596 10.22 29.2516 9.96799 28.5724 9.85879C28.199 9.77158 27.8615 9.57062 27.6061 9.28339C27.5862 9.26808 27.5677 9.25354 27.5503 9.23986L27.5502 9.23977C27.4426 9.15531 27.3766 9.10349 27.2843 9.10349C27.1309 9.13471 26.9851 9.19583 26.8552 9.28339C22.7788 11.6913 18.596 14.1209 14.4052 16.555L14.4045 16.5554L14.4038 16.5558C13.1506 17.2838 11.8966 18.0121 10.6446 18.7404C10.2872 18.956 10.2531 19.0638 10.3228 19.4236C10.4053 19.7285 10.4174 20.0484 10.3583 20.3588V20.8985C10.3854 21.0651 10.4463 21.2242 10.5373 21.3661C11.6153 21.9967 12.6925 22.62 13.7797 23.249L13.7802 23.2493L13.7805 23.2495C15.1114 24.0195 16.4572 24.7982 17.8373 25.6095L19.3044 26.4726C21.683 23.2161 25.2973 21.0944 29.2885 20.6115V18.2742ZM10.4649 48.6591L19.1964 43.2292C21.621 46.6879 25.4206 48.9185 29.6096 49.3423V52.7226C29.6096 54.7843 29.6417 56.9104 29.6733 59.01L29.6793 59.4111C29.6793 59.7709 29.6438 59.8423 29.3575 59.9865C28.853 60.2259 28.3735 60.515 27.9259 60.8496C27.7864 60.9335 27.6547 61.0298 27.5323 61.1373L10.4983 51.3205V48.6605L10.4649 48.6591ZM33.0966 63.5971C32.7076 62.9294 31.9901 62.5247 31.2203 62.5387C30.0593 62.5598 29.1292 63.5115 29.1292 64.6782C29.1292 65.845 30.0593 66.7967 31.2203 66.8178C31.9901 66.8318 32.7076 66.4271 33.0966 65.7593C33.4856 65.0916 33.4856 64.2649 33.0966 63.5971ZM32.5801 49.3423C36.7251 48.8484 40.4625 46.5979 42.8505 43.1578L44.0675 43.8767C46.5363 45.3152 49.0776 46.8251 51.5465 48.3357C51.594 48.4496 51.6177 48.572 51.6162 48.6955C51.6107 48.8773 51.5873 49.058 51.5465 49.2352C51.4386 49.6244 51.4386 50.0359 51.5465 50.4252C51.7611 51.0363 51.582 51.2162 50.8666 51.6152C50.24 51.9795 49.6111 52.3449 48.9796 52.7119L48.9785 52.7125L48.9763 52.7137L48.9745 52.7148C44.5584 55.2809 40.0123 57.9225 35.1924 60.7852C34.7988 61.0008 34.6916 61.0008 34.369 60.7495C33.9561 60.4118 33.4985 60.1336 33.0092 59.9228C32.874 59.8585 32.7426 59.7865 32.6156 59.7072V49.3423H32.5801ZM6.81454 25.0705V27.4078H6.81524V44.8476C6.81524 44.9197 6.92252 45.0296 7.0298 45.0996C7.48914 45.3836 7.9831 45.6321 8.4775 45.8808L8.47754 45.8808L8.47772 45.8809L8.4969 45.8906L8.92603 46.1062L17.7293 40.6406C16.189 36.9035 16.2277 32.6976 17.8366 28.9898L8.96156 23.8476L6.81454 25.0705ZM5.45472 47.796C6.61855 47.8306 7.56471 48.75 7.63796 49.9177C7.64322 50.5106 7.41114 51.0807 6.9939 51.5C6.57666 51.9193 6.00924 52.1525 5.4192 52.1472C4.2455 52.1184 3.30082 51.1692 3.27218 49.9898C3.30224 48.7913 4.26201 47.8269 5.45472 47.7967V47.796ZM5.45472 22.2299C6.02108 22.2221 6.56133 21.9893 6.95735 21.5824L6.95805 21.5831C7.35286 21.181 7.57175 20.6373 7.56621 20.0725C7.53147 18.9075 6.57912 17.9825 5.4192 17.9872C4.85645 17.978 4.31406 18.1986 3.91608 18.5985C3.51811 18.9984 3.29858 19.5434 3.30771 20.1089C3.31547 20.678 3.54715 21.2208 3.9521 21.6188C4.35198 22.0155 4.89284 22.2354 5.45472 22.2299Z" fill="#2721AB"/>
</g>
</svg>
