<svg width="18" height="18" viewBox="0 0 18 18" fill="none" xmlns="http://www.w3.org/2000/svg">
<path fill-rule="evenodd" clip-rule="evenodd" d="M14.6432 0C12.5174 0 10.8038 1.417 9.1466 2.78748C7.6466 4.0278 6.2298 5.19925 4.6594 5.19925H2.0546C0.9216 5.19925 0 6.11896 0 7.25009V8.9833C0 10.1142 0.9216 11.0339 2.0546 11.0339H2.1702V15.0492C2.1702 16.1801 3.092 17.1 4.225 17.1H5.0932C6.2262 17.1 7.1478 16.1801 7.1478 15.0492V11.9135C7.8112 12.3433 8.4702 12.8873 9.146 13.4463C10.8034 14.8164 12.517 16.2338 14.6428 16.2338C16.5254 16.2336 18 12.6683 18 8.1169C18 3.56525 16.5254 0 14.6432 0ZM6.5114 15.0494C6.5114 15.8297 5.8752 16.4646 5.0934 16.4646H4.2252C3.4432 16.4646 2.807 15.8297 2.807 15.0494V11.0339H4.6594C5.2968 11.0339 5.9088 11.2294 6.5114 11.5414V15.0494ZM9.5526 12.9568C8.0318 11.6989 6.4592 10.3985 4.6594 10.3985H2.0546C1.2728 10.3985 0.6366 9.76367 0.6366 8.98331V7.25009C0.6366 6.46972 1.2728 5.83469 2.0546 5.83469H4.6592C6.459 5.83469 8.0314 4.53408 9.5524 3.27679C10.664 2.35767 11.8026 1.4188 13.0456 0.947263C11.9898 2.29998 11.286 4.97267 11.286 8.1169C11.286 11.2605 11.9896 13.9334 13.0452 15.2857C11.8026 14.8146 10.664 13.8757 9.5526 12.9568ZM14.6432 15.5982C13.3294 15.5982 11.9228 12.5921 11.9228 8.1169C11.9228 3.64151 13.3292 0.635234 14.6432 0.635234C15.9568 0.635234 17.3634 3.64151 17.3634 8.1169C17.3632 12.5921 15.9568 15.5982 14.6432 15.5982Z" fill="#1F263E"/>
</svg>
