<svg width="22" height="22" viewBox="0 0 22 22" fill="none" xmlns="http://www.w3.org/2000/svg">
<path fill-rule="evenodd" clip-rule="evenodd" d="M11 22C4.92481 22 0 17.0752 0 11C0 4.92481 4.92481 0 11 0C17.0752 0 22 4.92481 22 11C22 17.0752 17.0752 22 11 22Z" fill="#1786C4"/>
<path fill-rule="evenodd" clip-rule="evenodd" d="M18.6716 4.4H16.4442L12.9238 8.00604C11.8614 9.09429 10.139 9.09429 9.07658 8.00604L5.55621 4.4H3.32885L7.96289 9.14682C9.64036 10.8651 12.3601 10.8651 14.0375 9.14682L18.6716 4.4ZM3.30005 17.6H5.52742L9.07641 13.9646C10.1388 12.8764 11.8612 12.8764 12.9237 13.9646L16.4726 17.6H18.7L14.0374 12.8239C12.3599 11.1056 9.64019 11.1056 7.96272 12.8239L3.30005 17.6Z" fill="white"/>
</svg>
