<svg width="18" height="18" viewBox="0 0 18 18" fill="none" xmlns="http://www.w3.org/2000/svg">
<path fill-rule="evenodd" clip-rule="evenodd" d="M15.2176 7.60879C15.2176 11.811 11.811 15.2176 7.60879 15.2176C3.40657 15.2176 0 11.811 0 7.60879C0 3.40657 3.40657 0 7.60879 0C11.811 0 15.2176 3.40657 15.2176 7.60879ZM14.2031 7.60879C14.2031 11.2507 11.2507 14.2031 7.60879 14.2031C3.96686 14.2031 1.0145 11.2507 1.0145 7.60879C1.0145 3.96687 3.96686 1.01451 7.60879 1.01451C11.2507 1.01451 14.2031 3.96687 14.2031 7.60879ZM16.9081 17.6254L13.7732 14.4906L13.5472 14.2646C13.3492 14.0665 13.3492 13.7453 13.5472 13.5472C13.7453 13.3492 14.0665 13.3492 14.2646 13.5472L14.4906 13.7733L17.6254 16.9081L17.8514 17.1341C18.0495 17.3322 18.0495 17.6533 17.8514 17.8514C17.6533 18.0495 17.3322 18.0495 17.1341 17.8514L16.9081 17.6254Z" fill="#50B8E4"/>
<mask id="mask0" mask-type="alpha" maskUnits="userSpaceOnUse" x="0" y="0" width="18" height="18">
<path fill-rule="evenodd" clip-rule="evenodd" d="M15.2176 7.60879C15.2176 11.811 11.811 15.2176 7.60879 15.2176C3.40657 15.2176 0 11.811 0 7.60879C0 3.40657 3.40657 0 7.60879 0C11.811 0 15.2176 3.40657 15.2176 7.60879ZM14.2031 7.60879C14.2031 11.2507 11.2507 14.2031 7.60879 14.2031C3.96686 14.2031 1.0145 11.2507 1.0145 7.60879C1.0145 3.96687 3.96686 1.01451 7.60879 1.01451C11.2507 1.01451 14.2031 3.96687 14.2031 7.60879ZM16.9081 17.6254L13.7732 14.4906L13.5472 14.2646C13.3492 14.0665 13.3492 13.7453 13.5472 13.5472C13.7453 13.3492 14.0665 13.3492 14.2646 13.5472L14.4906 13.7733L17.6254 16.9081L17.8514 17.1341C18.0495 17.3322 18.0495 17.6533 17.8514 17.8514C17.6533 18.0495 17.3322 18.0495 17.1341 17.8514L16.9081 17.6254Z" fill="white"/>
</mask>
<g mask="url(#mask0)">
</g>
</svg>
